<svg width="170" height="23" viewBox="0 0 170 23" fill="none" xmlns="http://www.w3.org/2000/svg">
<path d="M0.208984 1.6482V0.189453H37.9198V1.6482H0.208984ZM0.208984 10.3979H37.9198V11.8567H1.65845V20.6064H37.9184V22.0651H0.208984V10.3993V10.3979Z" fill="black"/>
<path d="M131.652 1.6482V0.189453H169.363V1.6482H131.652ZM131.652 10.3979H169.363V11.8567H133.103V20.6064H169.363V22.0651H131.652V10.3993V10.3979Z" fill="black"/>
<path d="M94.1291 20.5819L86.1502 11.3953L94.3904 1.90994L94.4881 1.76752L94.5582 1.66382H109.956L109.941 0.247933L93.7372 0.224427V0.223044V0.224427L93.7496 0.188477L93.6794 0.289414L85.0913 10.1771L76.5018 0.289414L76.444 0.224427L60.2262 0.200921L60.2139 1.65414L62.0993 1.66382H75.59V1.73433H75.6175L84.0324 11.3953L76.0521 20.6026L60.2262 20.5916V22.0794L60.7983 22.0863H76.8634L85.0913 12.6148L93.3191 22.0863H109.959V20.5916L94.1291 20.5819Z" fill="black"/>
</svg>
