<svg width="1340" height="584" viewBox="0 0 1340 584" fill="none" xmlns="http://www.w3.org/2000/svg">
<g clip-path="url(#clip0_134_3490)">
<rect width="79.5364" height="79.5364" transform="matrix(0.866025 0.5 -0.866025 0.5 365.406 207.558)" stroke="black" stroke-linejoin="bevel"/>
<rect width="79.5364" height="79.5364" transform="matrix(0.866025 0.5 0 1 296.525 247.326)" stroke="black" stroke-linejoin="bevel"/>
<rect width="79.5364" height="79.5364" transform="matrix(0.866025 -0.5 0 1 365.406 287.094)" stroke="black" stroke-linejoin="bevel"/>
<rect width="79.5364" height="79.5364" transform="matrix(0.866025 0.5 -0.866025 0.5 227.648 128.706)" stroke="black" stroke-linejoin="bevel"/>
<rect width="79.5364" height="79.5364" transform="matrix(0.866025 0.5 0 1 158.768 168.474)" stroke="black" stroke-linejoin="bevel"/>
<rect width="79.5364" height="79.5364" transform="matrix(0.866025 -0.5 0 1 227.648 208.242)" fill="#C5C5C5" stroke="black" stroke-linejoin="bevel"/>
<path d="M250.945 142.164L183.903 182.803V200.711L201.101 211.162L202.022 193.157L267.512 151.741L250.945 142.164Z" stroke="black"/>
<rect width="27.6229" height="17.5821" rx="2" transform="matrix(0.866025 0.5 0 1 194.848 240.07)" stroke="black"/>
<rect width="79.5364" height="79.5364" transform="matrix(0.866025 0.5 -0.866025 0.5 434.287 8)" stroke="black" stroke-linejoin="bevel"/>
<rect width="79.5364" height="159.073" transform="matrix(0.866025 0.5 0 1 365.406 47.7682)" stroke="black" stroke-linejoin="bevel"/>
<rect width="79.5364" height="159.073" transform="matrix(0.866025 -0.5 0 1 434.287 87.5364)" fill="#C5C5C5" stroke="black" stroke-linejoin="bevel"/>
<path d="M457.193 21.3148L387.832 61.2198L387.832 141.217L405.031 151.669L405.951 71.5739L473.76 30.8922L457.193 21.3148Z" stroke="black"/>
<rect width="31.2564" height="37.2094" rx="2" transform="matrix(0.866025 -0.5 0 1 441.947 196.706)" fill="white" stroke="black"/>
<rect width="79.5364" height="79.5364" transform="matrix(0.866025 0.5 -0.866025 0.5 365.409 128.022)" fill="white" stroke="black" stroke-linejoin="bevel"/>
<rect width="79.5364" height="79.5364" transform="matrix(0.866025 0.5 0 1 296.528 167.791)" fill="white" stroke="black" stroke-linejoin="bevel"/>
<rect width="79.5364" height="79.5364" transform="matrix(0.866025 -0.5 0 1 365.409 207.559)" fill="#C5C5C5" stroke="black" stroke-linejoin="bevel"/>
<path d="M387.973 141.206L321.282 182.806V200.714L338.48 211.165L339.401 193.16L404.54 150.784L387.973 141.206Z" fill="white" stroke="black"/>
<rect width="27.6229" height="17.5821" rx="2" transform="matrix(0.866025 0.5 0 1 332.225 238.187)" fill="white" stroke="black"/>
<rect width="79.5364" height="79.5364" transform="matrix(0.866025 0.5 -0.866025 0.5 297.074 246.332)" fill="white" stroke="black" stroke-linejoin="bevel"/>
<rect width="79.5364" height="79.5364" transform="matrix(0.866025 0.5 0 1 228.193 286.1)" fill="white" stroke="black" stroke-linejoin="bevel"/>
<rect width="79.5364" height="79.5364" transform="matrix(0.866025 -0.5 0 1 297.074 325.869)" fill="#C5C5C5" stroke="black" stroke-linejoin="bevel"/>
<path d="M271.837 261.019L338.879 301.658V319.566L321.68 330.018L320.759 312.012L255.27 270.596L271.837 261.019Z" fill="white" stroke="black"/>
<rect width="27.6229" height="17.5821" rx="2" transform="matrix(0.866025 -0.5 0 1 335.06 354.959)" fill="white" stroke="black"/>
<rect width="79.5364" height="159.073" transform="matrix(0.866025 0.5 -0.866025 0.5 503.719 205.19)" fill="white" stroke="black" stroke-linejoin="bevel"/>
<rect width="79.5364" height="79.5364" transform="matrix(0.866025 0.5 0 1 365.957 284.727)" fill="white" stroke="black" stroke-linejoin="bevel"/>
<rect width="159.073" height="79.5364" transform="matrix(0.866025 -0.5 0 1 434.838 324.495)" fill="#C5C5C5" stroke="black" stroke-linejoin="bevel"/>
<path d="M529.948 220.172L393.032 300.689V318.597L410.23 329.048L411.151 311.043L546.514 229.749L529.948 220.172Z" fill="white" stroke="black"/>
<rect width="31.2564" height="37.2094" rx="2" transform="matrix(0.866025 -0.5 0 1 445.354 331.988)" fill="white" stroke="black"/>
<rect width="79.5364" height="79.5364" transform="matrix(0.866025 0.5 -0.866025 0.5 159.313 246.609)" stroke="black" stroke-linejoin="bevel"/>
<rect width="79.5364" height="79.5364" transform="matrix(0.866025 0.5 0 1 90.4326 286.378)" stroke="black" stroke-linejoin="bevel"/>
<rect width="79.5364" height="79.5364" transform="matrix(0.866025 -0.5 0 1 159.313 326.146)" fill="#C5C5C5" stroke="black" stroke-linejoin="bevel"/>
<path d="M134.076 262.012L201.118 302.651V320.559L183.92 331.01L182.999 313.005L117.509 271.589L134.076 262.012Z" fill="white" stroke="black"/>
<rect width="27.6229" height="35.0654" rx="2" transform="matrix(0.866025 0.5 0 1 97.3843 304.611)" stroke="black"/>
<path d="M736.704 41.2031C663.36 41.2032 610.327 102.135 610.327 102.135L695.841 152.093C708.653 141.242 782.906 152.093 782.906 152.093L868.159 102.135C868.159 102.135 810.048 41.2031 736.704 41.2031Z" fill="white" stroke="black"/>
<path d="M7.00049 377.713L242.687 515.772V565.974L7.00049 426.725V377.713Z" fill="#C5C5C5"/>
<rect width="135.408" height="49.7082" transform="matrix(0.866025 -0.5 0 1 1234.55 515.996)" fill="#878787"/>
<path d="M782.457 354.071V303.324C782.457 303.324 764.97 289.444 739.065 289.444C713.16 289.444 695.673 303.324 695.673 303.324V352.964C695.673 352.964 717.294 339.284 739.065 339.284C760.836 339.284 782.457 354.071 782.457 354.071Z" stroke="#585858"/>
<path d="M243.784 515.623C243.784 515.623 263.048 526.692 286.699 526.692C310.35 526.692 330.67 516.216 330.67 516.216V565.185C330.67 565.185 313.767 575.694 286.699 575.694C259.631 575.694 243.784 565.933 243.784 565.933V515.623Z" fill="#878787"/>
<path d="M1147.61 514.861C1147.61 514.861 1166.87 525.312 1190.52 525.312C1214.17 525.312 1234.49 516.216 1234.49 516.216V565.184C1234.49 565.184 1217.59 575.693 1190.52 575.693C1163.46 575.693 1147.61 565.932 1147.61 565.932V514.861Z" fill="#878787"/>
<path d="M330.865 515.949L695.979 304.249V352.85L330.865 563.649V515.949Z" fill="#878787"/>
<path d="M93.1279 328.171L7 377.615L236.473 512.291C267.632 530.578 306.232 530.636 337.445 512.443L696.021 303.449L609.893 254.803L286.915 440.615L93.1279 328.171Z" fill="white" stroke="black"/>
<path d="M1385.99 327.171L1472.11 376.615L1242.64 511.291C1211.48 529.578 1172.88 529.636 1141.67 511.444L783.093 302.449L869.221 253.803L1192.2 439.615L1385.99 327.171Z" fill="white" stroke="black"/>
<path d="M782.349 303.432L869.338 253.859L790.432 208.033C759.43 190.028 721.161 189.997 690.129 207.952L610.787 253.859" stroke="black"/>
<path d="M7 378.479V427.236L236.473 561.912C267.632 580.199 306.232 580.257 337.445 562.064L696.021 353.07V304.225" stroke="black"/>
<path d="M783.006 354.457V152.066C783 152.061 782.993 152.055 782.987 152.05C782.858 151.943 782.665 151.785 782.408 151.582C781.895 151.178 781.129 150.598 780.123 149.901C778.112 148.506 775.143 146.643 771.323 144.78C763.682 141.054 752.644 137.327 739.055 137.327C725.462 137.327 714.69 140.868 707.319 144.407C703.633 146.176 700.799 147.945 698.888 149.268C697.933 149.93 697.209 150.48 696.725 150.864C696.484 151.056 696.302 151.206 696.182 151.307C696.179 151.31 696.176 151.312 696.173 151.315V352.832C696.209 352.808 696.245 352.784 696.284 352.76C696.869 352.379 697.729 351.836 698.836 351.185C701.049 349.885 704.248 348.151 708.197 346.418C716.092 342.954 727.009 339.482 739.055 339.482C751.112 339.482 762.301 343.375 770.461 347.255C774.544 349.196 777.876 351.137 780.189 352.594C781.345 353.322 782.247 353.93 782.861 354.356C782.911 354.391 782.959 354.424 783.006 354.457Z" fill="#C5C5C5" stroke="black"/>
<path d="M911.239 427.236L1140.71 561.912C1171.87 580.199 1210.47 580.257 1241.68 562.064L1600.26 353.07V304.225" stroke="black"/>
<path d="M49.9111 403.554L135.235 353.648" stroke="black"/>
<path d="M93.9883 428.516L179.312 378.61" stroke="black"/>
<path d="M136.988 453.709L222.312 403.803" stroke="black"/>
<path d="M179.988 478.422L265.312 428.516" stroke="black"/>
<path d="M393.899 478.803L308.575 428.896" stroke="black"/>
<path d="M1298.41 477.622L1213.09 427.716" stroke="black"/>
<path d="M1340.44 452.669L1255.12 402.763" stroke="black"/>
<path d="M1383.11 427.716L1297.78 377.81" stroke="black"/>
<path d="M436.224 453.516L350.899 403.609" stroke="black"/>
<path d="M478.886 428.897L393.562 378.99" stroke="black"/>
<path d="M521.548 403.516L436.224 353.61" stroke="black"/>
<path d="M564.21 378.99L478.886 329.084" stroke="black"/>
<path d="M608.224 354.037L522.899 304.131" stroke="black"/>
<path d="M825.359 328.323L910.684 278.416" stroke="black"/>
<path d="M869.338 353.035L954.662 303.129" stroke="black"/>
<path d="M912.035 377.989L997.359 328.082" stroke="black"/>
<path d="M954.998 402.942L1040.32 353.035" stroke="black"/>
<path d="M997.998 427.895L1083.32 377.989" stroke="black"/>
<path d="M1040.66 452.848L1125.98 402.941" stroke="black"/>
<path d="M1084.94 477.622L1170.27 427.716" stroke="black"/>
<path d="M652.312 329.178L566.988 279.272" stroke="black"/>
<path d="M286.84 440.572L243.37 515.557" stroke="black"/>
<path d="M286.84 440.93L330.31 515.914" stroke="black"/>
<path d="M1191.97 439L1147.56 514.503" stroke="black"/>
<path d="M1192.16 438.851L1234.5 514.861" stroke="black"/>
<path d="M330.865 515.996V565.369" stroke="black"/>
<path d="M243.37 515.557V564.93" stroke="black"/>
<path d="M1147.61 515.557V564.93" stroke="black"/>
<path d="M1147.18 565.003L782.799 355.18V302.597L1147.18 515.362V565.003Z" fill="#C5C5C5" stroke="black"/>
<path d="M1234.55 515.557V566.304" stroke="black"/>
<rect x="0.433013" y="0.75" width="99.3067" height="151.512" transform="matrix(0.866025 0.5 0 1 609.33 101.075)" fill="#D9D9D9" stroke="black"/>
<rect x="0.433013" y="0.25" width="99.3067" height="151.512" transform="matrix(0.866025 -0.5 0 1 782.514 151.818)" fill="#D9D9D9" stroke="black"/>
<path d="M622.694 127.072L679.913 160.108V294.323L622.694 261.585V127.072Z" fill="white" stroke="black"/>
<path d="M640.363 136.744V271.993" stroke="black"/>
<path d="M660.265 149.478V284.727" stroke="black"/>
<path d="M854.5 127.072L797.281 160.108V294.323L854.5 261.585V127.072Z" fill="white" stroke="black"/>
<path d="M815.497 149.478V284.727" stroke="black"/>
<path d="M837.168 136.744V271.993" stroke="black"/>
<path d="M504.762 319.53C509.545 316.769 517.3 316.769 522.083 319.53L566.316 345.069C571.099 347.83 571.099 352.307 566.316 355.069L522.083 380.607C517.3 383.368 509.545 383.368 504.762 380.607L460.528 355.069C455.745 352.307 455.745 347.83 460.528 345.069L504.762 319.53Z" fill="#4A8075" stroke="white" stroke-linejoin="bevel"/>
<rect width="53.3075" height="13.3269" transform="matrix(0.866025 0.5 0 1 459.562 354.511)" fill="#4A8075" stroke="white" stroke-linejoin="bevel"/>
<rect width="53.3075" height="13.3269" transform="matrix(0.866025 -0.5 0 1 521.117 381.165)" fill="#4A8075" stroke="white" stroke-linejoin="bevel"/>
<path d="M456.375 350.069C456.375 351.803 457.593 353.374 459.563 354.511V367.838C457.593 366.701 456.375 365.13 456.375 363.395V350.069Z" fill="#4A8075" stroke="white" stroke-linejoin="bevel"/>
<path d="M505.729 381.165C509.978 383.618 516.868 383.618 521.117 381.165V394.492C516.868 396.945 509.978 396.945 505.729 394.492V381.165Z" fill="#4A8075" stroke="white" stroke-linejoin="bevel"/>
<path d="M570.469 350.069C570.469 351.803 569.251 353.374 567.282 354.511V367.838C569.251 366.701 570.469 365.13 570.469 363.395V350.069Z" fill="#4A8075" stroke="white" stroke-linejoin="bevel"/>
<path d="M542.187 368.491L521.055 356.291L502.496 367.006" stroke="white"/>
<path d="M521.133 356.291L542.265 344.091L523.706 333.375" stroke="white"/>
<path d="M521.212 356.291L500.081 344.091L481.521 354.806" stroke="white"/>
<path d="M510.793 350.255L489.661 338.055L481.59 342.715" stroke="white"/>
<path d="M515.749 353.145L494.618 340.945L502 336.683" stroke="white"/>
<path d="M492.097 360.846L502.512 354.833L491.876 348.692" stroke="white"/>
<path d="M527.45 344.834L523.5 342.553L510.626 349.986" stroke="white"/>
<path d="M538.156 338.427L534.206 336.147L531.545 337.683" stroke="white"/>
<path d="M511.333 342.123L507.383 339.842L500.027 344.089" stroke="white"/>
<path d="M527.221 338.283L528.885 339.244L531.545 337.708" stroke="white"/>
<path d="M506.302 350.766L507.966 351.727L510.626 350.19" stroke="white"/>
<circle cx="2.40391" cy="2.40391" r="1.90391" transform="matrix(0.866025 -0.5 0.866025 0.5 496.384 367.749)" stroke="white"/>
<circle cx="2.40391" cy="2.40391" r="1.90391" transform="matrix(0.866025 -0.5 0.866025 0.5 520.946 337.33)" stroke="white"/>
<circle cx="2.40391" cy="2.40391" r="1.90391" transform="matrix(0.866025 -0.5 0.866025 0.5 500.027 349.813)" stroke="white"/>
<circle cx="2.40391" cy="2.40391" r="1.90391" transform="matrix(0.866025 -0.5 0.866025 0.5 475.28 343.965)" stroke="white"/>
<circle cx="2.40391" cy="2.40391" r="1.90391" transform="matrix(0.866025 -0.5 0.866025 0.5 486.291 362.233)" stroke="white"/>
<circle cx="2.40391" cy="2.40391" r="1.90391" transform="matrix(0.866025 -0.5 0.866025 0.5 525.11 345.948)" stroke="white"/>
<circle cx="2.40391" cy="2.40391" r="1.90391" transform="matrix(0.866025 -0.5 0.866025 0.5 475.28 355.548)" stroke="white"/>
<circle cx="2.40391" cy="2.40391" r="1.90391" transform="matrix(0.866025 -0.5 0.866025 0.5 535.874 339.734)" stroke="white"/>
<circle cx="2.40391" cy="2.40391" r="1.90391" transform="matrix(0.866025 -0.5 0.866025 0.5 508.464 343.545)" stroke="white"/>
<circle cx="2.40391" cy="2.40391" r="1.90391" transform="matrix(0.866025 -0.5 0.866025 0.5 499.613 335.779)" stroke="white"/>
<circle cx="2.40391" cy="2.40391" r="1.90391" transform="matrix(0.866025 0.5 -0.866025 0.5 521.907 329.816)" stroke="white"/>
<path d="M855.281 227.158C855.281 224.397 857.22 223.277 859.611 224.658L946.214 274.658C948.605 276.039 950.544 279.397 950.544 282.158V362.158C950.544 364.92 948.605 366.039 946.214 364.658L859.611 314.658C857.22 313.277 855.281 309.92 855.281 307.158V227.158Z" fill="#0D9276" stroke="black" stroke-linejoin="bevel"/>
<rect width="20" height="80" transform="matrix(0.866025 -0.5 0 1 950.544 282.158)" fill="#0A6955" stroke="black" stroke-linejoin="bevel"/>
<rect width="100" height="20" transform="matrix(0.866025 0.5 -0.866025 0.5 876.932 214.658)" fill="#0D9276" stroke="black" stroke-linejoin="bevel"/>
<path d="M856.55 224.355C857.395 223.867 858.503 224.018 859.612 224.658L876.932 214.658C875.824 214.018 874.716 213.867 873.87 214.355L856.55 224.355Z" fill="#0D9276" stroke="black" stroke-linejoin="bevel"/>
<path d="M950.544 282.158C950.544 279.397 948.605 276.039 946.214 274.658L963.534 264.658C965.926 266.039 967.865 269.397 967.865 272.158L950.544 282.158Z" fill="#0A6955" stroke="black" stroke-linejoin="bevel"/>
<path d="M949.275 364.962C950.121 364.473 950.544 363.438 950.544 362.158L967.864 352.158C967.864 353.438 967.441 354.473 966.596 354.962L949.275 364.962Z" fill="#0A6955" stroke="black" stroke-linejoin="bevel"/>
<path d="M897.122 237.856C897.122 237.856 901.458 219.79 915.188 225.932C928.919 232.074 922.957 250.321 922.957 250.321" stroke="black"/>
<path d="M891.227 294.918C891.227 296.262 890.812 297.15 889.98 297.582C889.149 297.998 888.054 297.878 886.696 297.222V299.67L885.117 298.758V296.286C883.648 295.246 882.491 293.978 881.646 292.482C880.814 290.994 880.371 289.474 880.316 287.922L882.186 289.002C882.255 290.178 882.643 291.314 883.35 292.41C884.057 293.49 884.964 294.35 886.073 294.99C887.071 295.566 887.874 295.782 888.484 295.638C889.107 295.486 889.419 294.962 889.419 294.066C889.419 293.666 889.343 293.27 889.191 292.878C889.052 292.478 888.879 292.13 888.671 291.834C888.463 291.522 888.158 291.17 887.756 290.778C887.368 290.394 887.015 290.078 886.696 289.83C886.392 289.574 885.969 289.234 885.429 288.81C884.75 288.29 884.161 287.798 883.662 287.334C883.177 286.862 882.685 286.322 882.186 285.714C881.701 285.098 881.327 284.434 881.064 283.722C880.801 282.994 880.669 282.238 880.669 281.454C880.669 280.11 881.071 279.246 881.874 278.862C882.692 278.47 883.773 278.606 885.117 279.27V276.798L886.696 277.71V280.23C887.999 281.19 889.031 282.338 889.793 283.674C890.555 285.01 890.971 286.378 891.04 287.778L889.17 286.698C889.059 285.658 888.685 284.666 888.047 283.722C887.424 282.77 886.62 282.01 885.636 281.442C884.666 280.882 883.897 280.678 883.329 280.83C882.761 280.982 882.477 281.498 882.477 282.378C882.477 282.762 882.546 283.146 882.685 283.53C882.837 283.922 883.011 284.262 883.205 284.55C883.412 284.846 883.71 285.186 884.098 285.57C884.5 285.946 884.854 286.262 885.158 286.518C885.463 286.758 885.886 287.09 886.426 287.514C887.105 288.034 887.694 288.534 888.193 289.014C888.692 289.478 889.191 290.022 889.689 290.646C890.188 291.27 890.569 291.946 890.833 292.674C891.096 293.386 891.227 294.134 891.227 294.918ZM903.852 302.208C903.852 303.552 903.437 304.44 902.605 304.872C901.774 305.288 900.679 305.168 899.321 304.512V306.96L897.742 306.048V303.576C896.273 302.536 895.116 301.268 894.271 299.772C893.439 298.284 892.996 296.764 892.941 295.212L894.811 296.292C894.88 297.468 895.268 298.604 895.975 299.7C896.682 300.78 897.589 301.64 898.698 302.28C899.696 302.856 900.499 303.072 901.109 302.928C901.732 302.776 902.044 302.252 902.044 301.356C902.044 300.956 901.968 300.56 901.816 300.168C901.677 299.768 901.504 299.42 901.296 299.124C901.088 298.812 900.783 298.46 900.381 298.068C899.993 297.684 899.64 297.368 899.321 297.12C899.017 296.864 898.594 296.524 898.054 296.1C897.375 295.58 896.786 295.088 896.287 294.624C895.802 294.152 895.31 293.612 894.811 293.004C894.326 292.388 893.952 291.724 893.689 291.012C893.426 290.284 893.294 289.528 893.294 288.744C893.294 287.4 893.696 286.536 894.499 286.152C895.317 285.76 896.398 285.896 897.742 286.56V284.088L899.321 285V287.52C900.624 288.48 901.656 289.628 902.418 290.964C903.18 292.3 903.596 293.668 903.665 295.068L901.795 293.988C901.684 292.948 901.31 291.956 900.672 291.012C900.049 290.06 899.245 289.3 898.261 288.732C897.291 288.172 896.522 287.968 895.954 288.12C895.386 288.272 895.102 288.788 895.102 289.668C895.102 290.052 895.171 290.436 895.31 290.82C895.462 291.212 895.636 291.552 895.83 291.84C896.037 292.136 896.335 292.476 896.723 292.86C897.125 293.236 897.479 293.552 897.783 293.808C898.088 294.048 898.511 294.38 899.051 294.804C899.73 295.324 900.319 295.824 900.818 296.304C901.317 296.768 901.816 297.312 902.314 297.936C902.813 298.56 903.194 299.236 903.458 299.964C903.721 300.676 903.852 301.424 903.852 302.208ZM916.478 309.497C916.478 310.841 916.062 311.729 915.23 312.161C914.399 312.577 913.304 312.457 911.946 311.801V314.249L910.367 313.337V310.865C908.898 309.825 907.741 308.557 906.896 307.061C906.064 305.573 905.621 304.053 905.566 302.501L907.436 303.581C907.505 304.757 907.893 305.893 908.6 306.989C909.307 308.069 910.214 308.929 911.323 309.569C912.321 310.145 913.124 310.361 913.734 310.217C914.357 310.065 914.669 309.541 914.669 308.645C914.669 308.245 914.593 307.849 914.441 307.457C914.302 307.057 914.129 306.709 913.921 306.413C913.713 306.101 913.408 305.749 913.006 305.357C912.619 304.973 912.265 304.657 911.946 304.409C911.642 304.153 911.219 303.813 910.679 303.389C910 302.869 909.411 302.377 908.912 301.913C908.427 301.441 907.935 300.901 907.436 300.293C906.951 299.677 906.577 299.013 906.314 298.301C906.051 297.573 905.919 296.817 905.919 296.033C905.919 294.689 906.321 293.825 907.124 293.441C907.942 293.049 909.023 293.185 910.367 293.849V291.377L911.946 292.289V294.809C913.249 295.769 914.281 296.917 915.043 298.253C915.805 299.589 916.221 300.957 916.29 302.357L914.42 301.277C914.309 300.237 913.935 299.245 913.297 298.301C912.674 297.349 911.87 296.589 910.886 296.021C909.917 295.461 909.147 295.257 908.579 295.409C908.011 295.561 907.727 296.077 907.727 296.957C907.727 297.341 907.796 297.725 907.935 298.109C908.087 298.501 908.261 298.841 908.455 299.129C908.663 299.425 908.96 299.765 909.348 300.149C909.75 300.525 910.104 300.841 910.408 301.097C910.713 301.337 911.136 301.669 911.676 302.093C912.355 302.613 912.944 303.113 913.443 303.593C913.942 304.057 914.441 304.601 914.939 305.225C915.438 305.849 915.819 306.525 916.083 307.253C916.346 307.965 916.478 308.713 916.478 309.497Z" fill="white"/>
</g>
<defs>
<clipPath id="clip0_134_3490">
<rect width="1340" height="584" fill="white"/>
</clipPath>
</defs>
</svg>
