<svg width="664" height="589" viewBox="0 0 664 589" fill="none" xmlns="http://www.w3.org/2000/svg">
<g clip-path="url(#clip0_134_4217)">
<circle cx="332.089" cy="291.855" r="238.283" fill="#40A2E3" stroke="black"/>
<path d="M167.196 158.63C160.738 158.63 158.496 149.061 158.274 140.589C158.049 132.002 162.702 124.416 168.863 118.429C176.016 111.477 187.947 101.334 206.018 90.0814C234.519 72.3336 255.098 66.2703 260.579 64.8614C261.551 64.6116 262.529 64.3772 263.532 64.3563C277.191 64.0719 266.838 98.3209 257.333 107.826C254.254 110.905 250.72 113.475 247.132 115.587C235.707 122.313 224.751 131.503 221.187 144.274L219.718 149.541C218.098 155.343 214.163 160.223 208.835 163.035C197.463 169.037 183.069 161.282 170.427 158.927C169.391 158.734 168.314 158.63 167.196 158.63Z" fill="#FFF6E9"/>
<path d="M390.973 145.497C390.973 129.928 399.167 120.915 409.82 110.263C422.587 97.4953 426.951 73.3117 443.088 81.4115C481.507 100.696 513.364 131.604 537.759 171.144C594.561 267.543 559.469 354.451 562.849 354.451H552.478C545.451 354.451 538.551 352.58 532.487 349.03L524 344.063C514.515 338.51 502.552 339.584 494.207 346.737L490.974 349.508C487.314 352.646 485.207 357.226 485.207 362.047C485.207 374.728 471.508 382.678 460.498 376.387L450.175 370.488C444.062 366.995 436.289 368.83 432.383 374.688L417.626 396.824C415.146 400.544 418.851 405.272 423.056 403.754C427.516 402.143 431.23 407.475 428.173 411.1L407.226 435.945C405.197 438.352 404.084 441.398 404.084 444.547V510.299C404.084 513.544 403.698 516.967 400.949 518.692C395.127 522.344 378.514 527.86 331.139 530.332C325.81 530.611 320.432 530.405 315.139 529.723C280.419 525.248 262.692 520.487 253.652 516.708C246.111 513.556 244.296 505.353 244.296 497.179V482.844C244.296 472.849 241.407 463.067 235.977 454.676C229.686 444.954 220.321 437.617 209.376 433.836L204.081 432.007C189.502 426.971 177.707 416.043 171.574 401.89L170.431 399.252C163.847 384.058 165.277 366.58 174.244 352.658C184.516 336.709 202.984 328.014 221.822 330.256L249.295 333.527C256.059 334.332 262.218 337.811 266.4 343.187L276.473 356.139C279.922 360.573 286.378 361.225 290.644 357.569C292.94 355.601 296.013 354.798 298.978 355.391L332.849 362.165C338.332 363.262 343.446 359.068 343.446 353.478C343.446 348.585 339.48 344.618 334.587 344.618H333.728C330.129 344.618 326.824 342.629 325.14 339.447L324.447 338.14C322.074 333.657 317.17 331.115 312.139 331.76L301.513 333.123C293.303 334.175 285.054 331.494 279.032 325.816L270.418 317.694C263.736 311.394 254.586 308.413 245.475 309.568L226.398 311.986C214.417 313.505 204.592 302.618 207.328 290.856C208.88 284.183 214.215 279.05 220.942 277.756L236.013 274.858C246.572 272.827 255.909 266.726 262.009 257.871L268.25 248.811C274.58 239.622 283.008 231.965 293.27 227.585C300.681 224.422 308.287 221.704 312.308 221.704C316.67 221.704 318.853 214.709 319.837 207.066C321.028 197.808 321.356 188.288 325.151 179.761C329.328 170.374 335.647 161.067 343.446 161.067C358.196 161.067 341.807 186.469 357.376 186.469C372.945 186.469 390.973 161.067 390.973 145.497Z" fill="#FFF6E9"/>
<path d="M167.196 158.63C160.738 158.63 158.496 149.061 158.274 140.589C158.049 132.002 162.702 124.416 168.863 118.429C176.016 111.477 187.947 101.334 206.018 90.0814C234.519 72.3336 255.098 66.2703 260.579 64.8614C261.551 64.6116 262.529 64.3772 263.532 64.3563C277.191 64.0719 266.838 98.3209 257.333 107.826C254.254 110.905 250.72 113.475 247.132 115.587C235.707 122.313 224.751 131.503 221.187 144.274L219.718 149.541C218.098 155.343 214.163 160.223 208.835 163.035C197.463 169.037 183.069 161.282 170.427 158.927C169.391 158.734 168.314 158.63 167.196 158.63Z" stroke="black"/>
<path d="M390.973 145.497C390.973 129.928 399.167 120.915 409.82 110.263C422.587 97.4953 426.951 73.3117 443.088 81.4115C481.507 100.696 513.364 131.604 537.759 171.144C594.561 267.543 559.469 354.451 562.849 354.451H552.478C545.451 354.451 538.551 352.58 532.487 349.03L524 344.063C514.515 338.51 502.552 339.584 494.207 346.737L490.974 349.508C487.314 352.646 485.207 357.226 485.207 362.047C485.207 374.728 471.508 382.678 460.498 376.387L450.175 370.488C444.062 366.995 436.289 368.83 432.383 374.688L417.626 396.824C415.146 400.544 418.851 405.272 423.056 403.754C427.516 402.143 431.23 407.475 428.173 411.1L407.226 435.945C405.197 438.352 404.084 441.398 404.084 444.547V510.299C404.084 513.544 403.698 516.967 400.949 518.692C395.127 522.344 378.514 527.86 331.139 530.332C325.81 530.611 320.432 530.405 315.139 529.723C280.419 525.248 262.692 520.487 253.652 516.708C246.111 513.556 244.296 505.353 244.296 497.179V482.844C244.296 472.849 241.407 463.067 235.977 454.676C229.686 444.954 220.321 437.617 209.376 433.836L204.081 432.007C189.502 426.971 177.707 416.043 171.574 401.89L170.431 399.252C163.847 384.058 165.277 366.58 174.244 352.658C184.516 336.709 202.984 328.014 221.822 330.256L249.295 333.527C256.059 334.332 262.218 337.811 266.4 343.187L276.473 356.139C279.922 360.573 286.378 361.225 290.644 357.569C292.94 355.601 296.013 354.798 298.978 355.391L332.849 362.165C338.332 363.262 343.446 359.068 343.446 353.478C343.446 348.585 339.48 344.618 334.587 344.618H333.728C330.129 344.618 326.824 342.629 325.14 339.447L324.447 338.14C322.074 333.657 317.17 331.115 312.139 331.76L301.513 333.123C293.303 334.175 285.054 331.494 279.032 325.816L270.418 317.694C263.736 311.394 254.586 308.413 245.475 309.568L226.398 311.986C214.417 313.505 204.592 302.618 207.328 290.856C208.88 284.183 214.215 279.05 220.942 277.756L236.013 274.858C246.572 272.827 255.909 266.726 262.009 257.871L268.25 248.811C274.58 239.622 283.008 231.965 293.27 227.585C300.681 224.422 308.287 221.704 312.308 221.704C316.67 221.704 318.853 214.709 319.837 207.066C321.028 197.808 321.356 188.288 325.151 179.761C329.328 170.374 335.647 161.067 343.446 161.067C358.196 161.067 341.807 186.469 357.376 186.469C372.945 186.469 390.973 161.067 390.973 145.497Z" stroke="black"/>
<path d="M159.36 125.279C159.36 125.279 126.931 10 187.085 10C247.239 10 311.119 236.18 311.119 236.18" stroke="black"/>
<path d="M159.36 458.518C159.36 458.518 126.931 573.797 187.085 573.797C247.239 573.797 311.119 347.617 311.119 347.617" stroke="black"/>
<path d="M499.606 125.279C499.606 125.279 532.035 10 471.881 10C411.727 10 347.847 236.18 347.847 236.18" stroke="black"/>
<path d="M499.606 458.518C499.606 458.518 532.035 573.797 471.881 573.797C411.727 573.797 347.847 347.617 347.847 347.617" stroke="black"/>
<path d="M564.652 348.792C564.652 348.792 668.098 338.473 652.529 280.369C636.96 222.264 411.882 280.369 411.882 280.369" stroke="black"/>
<path d="M99.6543 346.8C99.6543 346.8 -3.79087 336.481 11.7781 278.377C27.3471 220.272 252.425 278.376 252.425 278.376" stroke="black"/>
<path d="M323.493 241.18C328.276 238.418 336.031 238.418 340.814 241.18L400.026 275.366C404.809 278.127 404.809 282.604 400.026 285.366L340.814 319.552C336.031 322.313 328.276 322.313 323.493 319.552L264.281 285.366C259.498 282.604 259.498 278.127 264.281 275.366L323.493 241.18Z" fill="#4A8075" stroke="white" stroke-linejoin="bevel"/>
<rect width="66.2791" height="16.5698" transform="matrix(0.866025 0.5 0 1 265.187 285.889)" fill="#4A8075" stroke="white" stroke-linejoin="bevel"/>
<rect width="66.2791" height="16.5698" transform="matrix(0.866025 -0.5 0 1 341.72 319.029)" fill="#4A8075" stroke="white" stroke-linejoin="bevel"/>
<path d="M261.225 280.365C261.225 282.522 262.74 284.475 265.188 285.889V302.459C262.74 301.045 261.225 299.092 261.225 296.935V280.365Z" fill="#4A8075" stroke="white" stroke-linejoin="bevel"/>
<path d="M322.587 319.029C327.871 322.079 336.437 322.079 341.72 319.029V335.599C336.437 338.649 327.871 338.649 322.587 335.599V319.029Z" fill="#4A8075" stroke="white" stroke-linejoin="bevel"/>
<path d="M403.082 280.365C403.082 282.522 401.567 284.475 399.119 285.889V302.459C401.567 301.045 403.082 299.092 403.082 296.935V280.365Z" fill="#4A8075" stroke="white" stroke-linejoin="bevel"/>
<path d="M371.188 302.202L344.915 287.033L321.839 300.355" stroke="white"/>
<path d="M345.012 287.034L371.286 271.865L348.211 258.542" stroke="white"/>
<path d="M345.11 287.033L318.836 271.864L295.761 285.186" stroke="white"/>
<path d="M332.154 279.529L305.881 264.36L295.846 270.153" stroke="white"/>
<path d="M338.317 283.121L312.044 267.952L321.221 262.653" stroke="white"/>
<path d="M308.91 292.697L321.86 285.221L308.635 277.585" stroke="white"/>
<path d="M352.866 272.787L347.955 269.952L331.949 279.193" stroke="white"/>
<path d="M366.177 264.822L361.266 261.987L357.958 263.897" stroke="white"/>
<path d="M332.827 269.417L327.916 266.581L318.77 271.862" stroke="white"/>
<path d="M352.582 264.643L354.65 265.837L357.958 263.927" stroke="white"/>
<path d="M326.572 280.164L328.641 281.358L331.949 279.448" stroke="white"/>
<circle cx="2.98886" cy="2.98886" r="2.48886" transform="matrix(0.866025 -0.5 0.866025 0.5 314.24 301.279)" stroke="white"/>
<circle cx="2.98886" cy="2.98886" r="2.48886" transform="matrix(0.866025 -0.5 0.866025 0.5 344.779 263.458)" stroke="white"/>
<circle cx="2.98886" cy="2.98886" r="2.48886" transform="matrix(0.866025 -0.5 0.866025 0.5 318.77 278.979)" stroke="white"/>
<circle cx="2.98886" cy="2.98886" r="2.48886" transform="matrix(0.866025 -0.5 0.866025 0.5 288.001 271.708)" stroke="white"/>
<circle cx="2.98886" cy="2.98886" r="2.48886" transform="matrix(0.866025 -0.5 0.866025 0.5 301.69 294.422)" stroke="white"/>
<circle cx="2.98886" cy="2.98886" r="2.48886" transform="matrix(0.866025 -0.5 0.866025 0.5 349.955 274.174)" stroke="white"/>
<circle cx="2.98886" cy="2.98886" r="2.48886" transform="matrix(0.866025 -0.5 0.866025 0.5 288.001 286.11)" stroke="white"/>
<circle cx="2.98886" cy="2.98886" r="2.48886" transform="matrix(0.866025 -0.5 0.866025 0.5 363.339 266.448)" stroke="white"/>
<circle cx="2.98886" cy="2.98886" r="2.48886" transform="matrix(0.866025 -0.5 0.866025 0.5 329.259 271.185)" stroke="white"/>
<circle cx="2.98886" cy="2.98886" r="2.48886" transform="matrix(0.866025 -0.5 0.866025 0.5 318.255 261.53)" stroke="white"/>
<circle cx="2.98886" cy="2.98886" r="2.48886" transform="matrix(0.866025 0.5 -0.866025 0.5 345.974 254.116)" stroke="white"/>
</g>
<defs>
<clipPath id="clip0_134_4217">
<rect width="664" height="589" fill="white"/>
</clipPath>
</defs>
</svg>
