<svg width="798" height="493" viewBox="0 0 798 493" fill="none" xmlns="http://www.w3.org/2000/svg">
<path d="M129.904 162.159C129.904 157.741 133.006 155.95 136.832 158.159L313.502 260.159C317.328 262.368 320.43 267.741 320.43 272.159V416.159C320.43 420.577 317.328 422.368 313.502 420.159L136.833 318.159C133.006 315.95 129.904 310.577 129.904 306.159V162.159Z" fill="black" stroke="black" stroke-linejoin="bevel"/>
<path d="M132.275 164.971C132.275 162.209 134.214 161.09 136.606 162.471L311.75 263.591C314.142 264.971 316.081 268.329 316.081 271.091V402.973C316.081 405.735 314.142 406.854 311.75 405.473L136.606 304.353C134.214 302.972 132.275 299.615 132.275 296.853V164.971Z" fill="white" stroke="black" stroke-linejoin="bevel"/>
<rect width="5" height="144" transform="matrix(0.866025 -0.5 0 1 320.43 272.159)" fill="black" stroke="black" stroke-linejoin="bevel"/>
<rect width="204" height="5" transform="matrix(0.866025 0.5 -0.866025 0.5 141.163 155.659)" fill="black" stroke="black" stroke-linejoin="bevel"/>
<path d="M131.934 157.674C133.286 156.893 135.059 157.136 136.833 158.16L141.163 155.66C139.39 154.636 137.617 154.393 136.264 155.174L131.934 157.674Z" fill="black" stroke="black" stroke-linejoin="bevel"/>
<path d="M320.43 272.159C320.43 267.741 317.328 262.368 313.502 260.159L317.832 257.659C321.658 259.868 324.76 265.241 324.76 269.659L320.43 272.159Z" fill="black" stroke="black" stroke-linejoin="bevel"/>
<path d="M318.4 420.644C319.753 419.863 320.43 418.207 320.43 416.159L324.76 413.659C324.76 415.707 324.083 417.363 322.731 418.144L318.4 420.644Z" fill="black" stroke="black" stroke-linejoin="bevel"/>
<path d="M122.976 308.159C126.802 305.95 133.006 305.95 136.832 308.159L313.501 410.159C317.328 412.368 317.328 415.95 313.501 418.159L197.454 485.159C193.627 487.368 187.424 487.368 183.597 485.159L6.92821 383.159C3.10187 380.95 3.10186 377.368 6.9282 375.159L122.976 308.159Z" fill="black" stroke="white" stroke-linejoin="bevel"/>
<rect width="200" height="84" rx="5" transform="matrix(0.866025 0.5 -0.866025 0.5 125.883 314.031)" fill="black" stroke="white" stroke-linejoin="bevel"/>
<rect width="10" height="10" rx="1" transform="matrix(0.866025 0.5 -0.866025 0.5 119.215 324.181)" fill="black" stroke="white" stroke-linejoin="bevel"/>
<rect width="15" height="10" rx="1" transform="matrix(0.866025 0.5 -0.866025 0.5 107.94 330.551)" fill="black" stroke="white" stroke-linejoin="bevel"/>
<rect width="20" height="10" rx="1" transform="matrix(0.866025 0.5 -0.866025 0.5 97.5645 336.801)" fill="black" stroke="white" stroke-linejoin="bevel"/>
<rect width="12" height="10" rx="1" transform="matrix(0.866025 0.5 -0.866025 0.5 86.6025 343.495)" fill="black" stroke="white" stroke-linejoin="bevel"/>
<rect width="10" height="10" rx="1" transform="matrix(0.866025 0.5 -0.866025 0.5 129.904 330.551)" fill="black" stroke="white" stroke-linejoin="bevel"/>
<rect width="10" height="10" rx="1" transform="matrix(0.866025 0.5 -0.866025 0.5 140.594 336.921)" fill="black" stroke="white" stroke-linejoin="bevel"/>
<rect width="10" height="10" rx="1" transform="matrix(0.866025 0.5 -0.866025 0.5 151.283 343.291)" fill="black" stroke="white" stroke-linejoin="bevel"/>
<rect width="10" height="10" rx="1" transform="matrix(0.866025 0.5 -0.866025 0.5 161.973 349.661)" fill="black" stroke="white" stroke-linejoin="bevel"/>
<rect width="10" height="10" rx="1" transform="matrix(0.866025 0.5 -0.866025 0.5 172.662 356.031)" fill="black" stroke="white" stroke-linejoin="bevel"/>
<rect width="10" height="10" rx="1" transform="matrix(0.866025 0.5 -0.866025 0.5 183.352 362.401)" fill="black" stroke="white" stroke-linejoin="bevel"/>
<rect width="10" height="10" rx="1" transform="matrix(0.866025 0.5 -0.866025 0.5 194.041 368.771)" fill="black" stroke="white" stroke-linejoin="bevel"/>
<rect width="10" height="10" rx="1" transform="matrix(0.866025 0.5 -0.866025 0.5 204.73 375.142)" fill="black" stroke="white" stroke-linejoin="bevel"/>
<rect width="10" height="10" rx="1" transform="matrix(0.866025 0.5 -0.866025 0.5 215.42 381.512)" fill="black" stroke="white" stroke-linejoin="bevel"/>
<rect width="10" height="10" rx="1" transform="matrix(0.866025 0.5 -0.866025 0.5 226.109 387.882)" fill="black" stroke="white" stroke-linejoin="bevel"/>
<rect width="10" height="10" rx="1" transform="matrix(0.866025 0.5 -0.866025 0.5 236.799 394.252)" fill="black" stroke="white" stroke-linejoin="bevel"/>
<rect width="10" height="10" rx="1" transform="matrix(0.866025 0.5 -0.866025 0.5 247.488 400.622)" fill="black" stroke="white" stroke-linejoin="bevel"/>
<rect width="10" height="10" rx="1" transform="matrix(0.866025 0.5 -0.866025 0.5 123.274 339.624)" fill="black" stroke="white" stroke-linejoin="bevel"/>
<rect width="10" height="10" rx="1" transform="matrix(0.866025 0.5 -0.866025 0.5 133.963 345.995)" fill="black" stroke="white" stroke-linejoin="bevel"/>
<rect width="10" height="10" rx="1" transform="matrix(0.866025 0.5 -0.866025 0.5 144.652 352.364)" fill="black" stroke="white" stroke-linejoin="bevel"/>
<rect width="10" height="10" rx="1" transform="matrix(0.866025 0.5 -0.866025 0.5 155.342 358.735)" fill="black" stroke="white" stroke-linejoin="bevel"/>
<rect width="10" height="10" rx="1" transform="matrix(0.866025 0.5 -0.866025 0.5 166.031 365.104)" fill="black" stroke="white" stroke-linejoin="bevel"/>
<rect width="10" height="10" rx="1" transform="matrix(0.866025 0.5 -0.866025 0.5 176.721 371.476)" fill="black" stroke="white" stroke-linejoin="bevel"/>
<rect width="10" height="10" rx="1" transform="matrix(0.866025 0.5 -0.866025 0.5 187.41 377.845)" fill="black" stroke="white" stroke-linejoin="bevel"/>
<rect width="10" height="10" rx="1" transform="matrix(0.866025 0.5 -0.866025 0.5 198.1 384.216)" fill="black" stroke="white" stroke-linejoin="bevel"/>
<rect width="10" height="10" rx="1" transform="matrix(0.866025 0.5 -0.866025 0.5 208.789 390.585)" fill="black" stroke="white" stroke-linejoin="bevel"/>
<rect width="10" height="10" rx="1" transform="matrix(0.866025 0.5 -0.866025 0.5 219.479 396.956)" fill="black" stroke="white" stroke-linejoin="bevel"/>
<rect width="10" height="10" rx="1" transform="matrix(0.866025 0.5 -0.866025 0.5 230.168 403.325)" fill="black" stroke="white" stroke-linejoin="bevel"/>
<rect width="10" height="10" rx="1" transform="matrix(0.866025 0.5 -0.866025 0.5 240.858 409.696)" fill="black" stroke="white" stroke-linejoin="bevel"/>
<rect width="10" height="10" rx="1" transform="matrix(0.866025 0.5 -0.866025 0.5 117.929 349.18)" fill="black" stroke="white" stroke-linejoin="bevel"/>
<rect width="10" height="10" rx="1" transform="matrix(0.866025 0.5 -0.866025 0.5 128.618 355.551)" fill="black" stroke="white" stroke-linejoin="bevel"/>
<rect width="10" height="10" rx="1" transform="matrix(0.866025 0.5 -0.866025 0.5 139.308 361.92)" fill="black" stroke="white" stroke-linejoin="bevel"/>
<rect width="10" height="10" rx="1" transform="matrix(0.866025 0.5 -0.866025 0.5 149.997 368.291)" fill="black" stroke="white" stroke-linejoin="bevel"/>
<rect width="10" height="10" rx="1" transform="matrix(0.866025 0.5 -0.866025 0.5 160.687 374.66)" fill="black" stroke="white" stroke-linejoin="bevel"/>
<rect width="10" height="10" rx="1" transform="matrix(0.866025 0.5 -0.866025 0.5 171.376 381.031)" fill="black" stroke="white" stroke-linejoin="bevel"/>
<rect width="10" height="10" rx="1" transform="matrix(0.866025 0.5 -0.866025 0.5 182.066 387.4)" fill="black" stroke="white" stroke-linejoin="bevel"/>
<rect width="10" height="10" rx="1" transform="matrix(0.866025 0.5 -0.866025 0.5 192.755 393.771)" fill="black" stroke="white" stroke-linejoin="bevel"/>
<rect width="10" height="10" rx="1" transform="matrix(0.866025 0.5 -0.866025 0.5 203.444 400.141)" fill="black" stroke="white" stroke-linejoin="bevel"/>
<rect width="10" height="10" rx="1" transform="matrix(0.866025 0.5 -0.866025 0.5 214.134 406.512)" fill="black" stroke="white" stroke-linejoin="bevel"/>
<rect width="10" height="10" rx="1" transform="matrix(0.866025 0.5 -0.866025 0.5 224.823 412.881)" fill="black" stroke="white" stroke-linejoin="bevel"/>
<rect width="10" height="10" rx="1" transform="matrix(0.866025 0.5 -0.866025 0.5 235.513 419.252)" fill="black" stroke="white" stroke-linejoin="bevel"/>
<rect width="10" height="10" rx="1" transform="matrix(0.866025 0.5 -0.866025 0.5 99.2568 350.772)" fill="black" stroke="white" stroke-linejoin="bevel"/>
<rect width="10" height="10" rx="1" transform="matrix(0.866025 0.5 -0.866025 0.5 76.5223 350.327)" fill="black" stroke="white" stroke-linejoin="bevel"/>
<rect width="10" height="10" rx="1" transform="matrix(0.866025 0.5 -0.866025 0.5 98.0731 363.07)" fill="black" stroke="white" stroke-linejoin="bevel"/>
<rect width="10" height="10" rx="1" transform="matrix(0.866025 0.5 -0.866025 0.5 87.1111 356.827)" fill="black" stroke="white" stroke-linejoin="bevel"/>
<rect width="10" height="10" rx="1" transform="matrix(0.866025 0.5 -0.866025 0.5 108.662 369.57)" fill="black" stroke="white" stroke-linejoin="bevel"/>
<rect width="10" height="10" rx="1" transform="matrix(0.866025 0.5 -0.866025 0.5 175.129 408.325)" fill="black" stroke="white" stroke-linejoin="bevel"/>
<rect width="10" height="10" rx="1" transform="matrix(0.866025 0.5 -0.866025 0.5 185.717 414.825)" fill="black" stroke="white" stroke-linejoin="bevel"/>
<rect width="10" height="5" rx="1" transform="matrix(0.866025 0.5 -0.866025 0.5 198.708 426.584)" fill="black" stroke="white" stroke-linejoin="bevel"/>
<rect width="10" height="5" rx="1" transform="matrix(0.866025 0.5 -0.866025 0.5 219.478 439.235)" fill="black" stroke="white" stroke-linejoin="bevel"/>
<path d="M212.861 430.834C213.34 430.558 214.115 430.558 214.593 430.834L221.522 434.834C222 435.11 222 435.558 221.522 435.834L218.057 437.834L209.397 432.834L212.861 430.834Z" fill="black" stroke="white" stroke-linejoin="bevel"/>
<path d="M209.397 432.834L218.058 437.834L214.593 439.834C214.115 440.11 213.34 440.11 212.861 439.834L205.933 435.834C205.455 435.558 205.455 435.11 205.933 434.834L209.397 432.834Z" fill="black" stroke="white" stroke-linejoin="bevel"/>
<rect width="61.236" height="10" rx="1" transform="matrix(0.866025 0.5 -0.866025 0.5 120.092 376.031)" fill="black" stroke="white" stroke-linejoin="bevel"/>
<rect width="10" height="10" rx="1" transform="matrix(0.866025 0.5 -0.866025 0.5 109.946 357.143)" fill="black" stroke="white" stroke-linejoin="bevel"/>
<rect width="10" height="10" rx="1" transform="matrix(0.866025 0.5 -0.866025 0.5 120.636 363.513)" fill="black" stroke="white" stroke-linejoin="bevel"/>
<rect width="10" height="10" rx="1" transform="matrix(0.866025 0.5 -0.866025 0.5 131.325 369.884)" fill="black" stroke="white" stroke-linejoin="bevel"/>
<rect width="10" height="10" rx="1" transform="matrix(0.866025 0.5 -0.866025 0.5 142.015 376.253)" fill="black" stroke="white" stroke-linejoin="bevel"/>
<rect width="10" height="10" rx="1" transform="matrix(0.866025 0.5 -0.866025 0.5 152.704 382.624)" fill="black" stroke="white" stroke-linejoin="bevel"/>
<rect width="10" height="10" rx="1" transform="matrix(0.866025 0.5 -0.866025 0.5 163.393 388.993)" fill="black" stroke="white" stroke-linejoin="bevel"/>
<rect width="10" height="10" rx="1" transform="matrix(0.866025 0.5 -0.866025 0.5 174.083 395.364)" fill="black" stroke="white" stroke-linejoin="bevel"/>
<rect width="10" height="10" rx="1" transform="matrix(0.866025 0.5 -0.866025 0.5 184.772 401.733)" fill="black" stroke="white" stroke-linejoin="bevel"/>
<rect width="10" height="10" rx="1" transform="matrix(0.866025 0.5 -0.866025 0.5 195.462 408.104)" fill="black" stroke="white" stroke-linejoin="bevel"/>
<rect width="10" height="10" rx="1" transform="matrix(0.866025 0.5 -0.866025 0.5 206.151 414.474)" fill="black" stroke="white" stroke-linejoin="bevel"/>
<rect width="20" height="10" rx="1" transform="matrix(0.866025 0.5 -0.866025 0.5 258.178 406.992)" fill="black" stroke="white" stroke-linejoin="bevel"/>
<rect width="25" height="10" rx="1" transform="matrix(0.866025 0.5 -0.866025 0.5 220.765 422.881)" fill="black" stroke="white" stroke-linejoin="bevel"/>
<path d="M250.952 416.65C251.431 416.374 252.206 416.374 252.684 416.65L263.943 423.15C264.421 423.426 264.421 423.874 263.943 424.15L256.149 428.65L245.587 434.042C245.105 434.287 244.376 434.276 243.917 434.016L238.633 431.02C238.139 430.74 238.145 430.279 238.646 430.003L247.627 425.061C248.105 424.797 248.135 424.362 247.694 424.078L243.931 421.649C243.497 421.369 243.518 420.943 243.977 420.677L250.952 416.65Z" fill="black" stroke="white" stroke-linejoin="bevel"/>
<rect width="161.807" height="5" rx="1" transform="matrix(0.866025 0.5 -0.866025 0.5 136.605 326.681)" fill="black" stroke="white" stroke-linejoin="bevel"/>
<rect width="10" height="5" rx="1" transform="matrix(0.866025 0.5 -0.866025 0.5 125.574 320.431)" fill="black" stroke="white" stroke-linejoin="bevel"/>
<rect width="5" height="5" rx="1" transform="matrix(0.866025 0.5 -0.866025 0.5 279.828 409.492)" fill="black" stroke="white" stroke-linejoin="bevel"/>
<rect width="100" height="47.4463" rx="5" transform="matrix(0.866025 0.5 -0.866025 0.5 91.7656 381.019)" fill="black" stroke="white" stroke-linejoin="bevel"/>
<rect width="204" height="5" transform="matrix(0.866025 0.5 0 1 6.92822 383.159)" fill="black" stroke="white" stroke-linejoin="bevel"/>
<rect width="134" height="5" transform="matrix(0.866025 -0.5 0 1 197.454 485.159)" fill="black" stroke="white" stroke-linejoin="bevel"/>
<path d="M4.05841 379.159C4.05841 380.721 5.15508 382.135 6.92817 383.159V388.159C5.15508 387.135 4.05841 385.721 4.05841 384.159V379.159Z" fill="black" stroke="white" stroke-linejoin="bevel"/>
<path d="M183.597 485.159C187.424 487.368 193.627 487.368 197.454 485.159V490.159C193.627 492.368 187.424 492.368 183.597 490.159V485.159Z" fill="black" stroke="white" stroke-linejoin="bevel"/>
<path d="M316.371 414.159C316.371 415.721 315.274 417.135 313.501 418.159V423.159C315.274 422.135 316.371 420.721 316.371 419.159V414.159Z" fill="black" stroke="white" stroke-linejoin="bevel"/>
<path d="M213.114 227.536C217.256 227.166 223.972 231.043 228.114 236.196L255.008 269.654C259.15 274.806 259.15 279.284 255.008 279.654L228.114 282.056C223.972 282.426 217.256 278.548 213.114 273.395L186.219 239.938C182.077 234.785 182.077 230.308 186.219 229.938L213.114 227.536Z" fill="white" stroke="black" stroke-linejoin="bevel"/>
<rect width="41.8946" height="10.4737" transform="matrix(0.75 0.933013 0 1 183.956 237.123)" fill="white" stroke="black" stroke-linejoin="bevel"/>
<rect width="41.8946" height="10.4737" transform="matrix(0.75 -0.0669873 0 1 225.85 282.258)" fill="white" stroke="black" stroke-linejoin="bevel"/>
<path d="M182.862 231.114C182.862 232.478 183.956 235.854 183.956 237.123V247.596C182.616 245.929 182.862 245.934 182.862 244.571L182.862 231.114Z" fill="white" stroke="black" stroke-linejoin="bevel"/>
<path d="M215.377 276.211C218.269 279.809 222.959 282.516 225.851 282.258V292.731C222.959 292.99 218.269 290.282 215.377 286.684V276.211Z" fill="white" stroke="black" stroke-linejoin="bevel"/>
<path d="M258.18 276.098C258.18 277.462 258.611 279.331 257.271 279.451L257.271 289.871C257.271 289.871 258.18 289.101 258.18 287.738V276.098Z" fill="white" stroke="black" stroke-linejoin="bevel"/>
<path d="M240.191 280.577L225.808 262.685L213.177 263.813" stroke="black"/>
<path d="M225.862 262.716L240.244 261.431L227.612 245.717" stroke="black"/>
<path d="M225.916 262.748L211.533 244.856L198.901 245.984" stroke="black"/>
<path d="M218.824 253.909L204.442 236.017L198.948 236.508" stroke="black"/>
<path d="M222.197 258.128L207.815 240.236L212.839 239.787" stroke="black"/>
<path d="M206.099 254.887L213.188 254.254L205.949 245.248" stroke="black"/>
<path d="M230.16 256.193L227.472 252.849L218.71 253.632" stroke="black"/>
<path d="M237.447 255.366L234.759 252.022L232.948 252.184" stroke="black"/>
<path d="M219.191 247.73L216.503 244.386L211.497 244.833" stroke="black"/>
<path d="M230.005 250.956L231.137 252.365L232.948 252.203" stroke="black"/>
<path d="M215.767 252.546L216.899 253.955L218.71 253.793" stroke="black"/>
<circle cx="1.88924" cy="1.88924" r="1.38924" transform="matrix(0.75 -0.0669873 0.75 0.933013 209.017 261.996)" stroke="black"/>
<circle cx="1.88924" cy="1.88924" r="1.38924" transform="matrix(0.75 -0.0669873 0.75 0.933013 225.734 247.741)" stroke="black"/>
<circle cx="1.88924" cy="1.88924" r="1.38924" transform="matrix(0.75 -0.0669873 0.75 0.933013 211.497 249.332)" stroke="black"/>
<circle cx="1.88924" cy="1.88924" r="1.38924" transform="matrix(0.75 -0.0669873 0.75 0.933013 194.653 235.011)" stroke="black"/>
<circle cx="1.88924" cy="1.88924" r="1.38924" transform="matrix(0.75 -0.0669873 0.75 0.933013 202.147 253.695)" stroke="black"/>
<circle cx="1.88924" cy="1.88924" r="1.38924" transform="matrix(0.75 -0.0669873 0.75 0.933013 228.568 256.151)" stroke="black"/>
<circle cx="1.88924" cy="1.88924" r="1.38924" transform="matrix(0.75 -0.0669873 0.75 0.933013 194.653 244.115)" stroke="black"/>
<circle cx="1.88924" cy="1.88924" r="1.38924" transform="matrix(0.75 -0.0669873 0.75 0.933013 235.894 255.497)" stroke="black"/>
<circle cx="1.88924" cy="1.88924" r="1.38924" transform="matrix(0.75 -0.0669873 0.75 0.933013 217.239 247.721)" stroke="black"/>
<circle cx="1.88924" cy="1.88924" r="1.38924" transform="matrix(0.75 -0.0669873 0.75 0.933013 211.215 238.139)" stroke="black"/>
<circle cx="1.88924" cy="1.88924" r="1.38924" transform="matrix(0.75 0.933013 -0.75 0.0669873 226.388 242.214)" stroke="black"/>
<rect x="0.433013" y="0.75" width="121.854" height="32.4486" rx="16.2243" transform="matrix(0.866025 0.5 0 1 160.745 270.939)" stroke="black"/>
<path d="M179.763 304.297L180.511 304.729V306.009L179.624 305.497C178.968 305.119 178.479 304.58 178.155 303.881L178.058 303.665C177.282 303.9 176.359 303.708 175.287 303.089C173.929 302.305 172.816 301.129 171.948 299.561C171.089 297.988 170.659 296.375 170.659 294.721C170.659 293.068 171.089 291.956 171.948 291.385C172.816 290.809 173.929 290.913 175.287 291.697C176.645 292.481 177.754 293.66 178.613 295.233C179.481 296.801 179.915 298.412 179.915 300.065C179.915 301.548 179.559 302.601 178.848 303.225C179.088 303.727 179.393 304.084 179.763 304.297ZM175.287 301.809C176.091 302.273 176.784 302.396 177.366 302.177L177.102 301.609C176.853 301.092 176.571 300.743 176.257 300.561L175.439 300.089V298.809L176.451 299.393C176.765 299.575 177.024 299.788 177.227 300.033C177.43 300.268 177.62 300.575 177.795 300.953L178.1 301.609C178.488 301.108 178.682 300.356 178.682 299.353C178.682 298.063 178.368 296.825 177.74 295.641C177.111 294.447 176.294 293.559 175.287 292.977C174.28 292.396 173.463 292.34 172.834 292.809C172.206 293.268 171.892 294.143 171.892 295.433C171.892 296.724 172.206 297.967 172.834 299.161C173.463 300.345 174.28 301.228 175.287 301.809ZM186.273 305.256V301.176L187.409 301.832V309.992L186.426 309.424L186.273 308.248C185.737 308.728 184.985 308.688 184.015 308.128C183.174 307.643 182.5 306.955 181.992 306.064C181.484 305.173 181.23 304.088 181.23 302.808V298.264L182.366 298.92V303.384C182.366 304.227 182.523 304.963 182.837 305.592C183.16 306.216 183.617 306.699 184.209 307.04C184.855 307.413 185.359 307.437 185.719 307.112C186.088 306.792 186.273 306.173 186.273 305.256ZM194.736 313.166C194.09 313.561 193.249 313.46 192.215 312.862C191.18 312.265 190.335 311.393 189.679 310.246C189.032 309.094 188.709 307.9 188.709 306.662C188.709 305.425 189.032 304.609 189.679 304.214C190.335 303.814 191.18 303.913 192.215 304.51C193.249 305.108 194.09 305.982 194.736 307.134C195.392 308.281 195.72 309.473 195.72 310.71C195.72 311.948 195.392 312.766 194.736 313.166ZM190.524 309.87C190.958 310.686 191.522 311.294 192.215 311.694C192.907 312.094 193.471 312.137 193.905 311.822C194.339 311.508 194.556 310.913 194.556 310.038C194.556 309.164 194.339 308.318 193.905 307.502C193.471 306.686 192.907 306.078 192.215 305.678C191.522 305.278 190.958 305.236 190.524 305.55C190.09 305.865 189.873 306.46 189.873 307.334C189.873 308.209 190.09 309.054 190.524 309.87ZM197.469 313.672V308.84L196.194 308.104V306.904L197.469 307.64V305.352L198.605 306.008V308.296L200.434 309.352V310.552L198.605 309.496V314.312C198.605 314.653 198.665 314.933 198.785 315.152C198.905 315.36 199.117 315.552 199.422 315.728L200.545 316.376V317.576L199.311 316.864C198.646 316.48 198.171 316.034 197.884 315.528C197.607 315.026 197.469 314.408 197.469 313.672ZM207.67 320.49L208.031 320.698V321.898L207.407 321.538C206.954 321.276 206.631 320.983 206.437 320.658C206.243 320.332 206.141 319.959 206.132 319.538C205.587 320.13 204.797 320.127 203.763 319.53C202.978 319.076 202.345 318.498 201.864 317.794C201.393 317.095 201.158 316.378 201.158 315.642C201.158 314.82 201.398 314.33 201.878 314.17C202.368 314.015 203.075 314.204 203.998 314.738L206.077 315.938V315.378C206.077 314.844 205.92 314.338 205.606 313.858C205.301 313.383 204.871 312.986 204.317 312.666C203.827 312.383 203.421 312.276 203.098 312.346C202.784 312.41 202.59 312.628 202.516 313.002L201.379 312.346C201.463 311.594 201.767 311.146 202.294 311.002C202.83 310.863 203.523 311.039 204.372 311.53C205.278 312.052 205.975 312.711 206.465 313.506C206.964 314.295 207.213 315.164 207.213 316.114V319.682C207.213 319.895 207.245 320.058 207.31 320.17C207.384 320.287 207.504 320.394 207.67 320.49ZM206.077 317.442V317.042L203.887 315.778C202.834 315.17 202.308 315.319 202.308 316.226C202.308 316.631 202.446 317.036 202.724 317.442C203.001 317.847 203.375 318.186 203.846 318.458C204.539 318.858 205.084 318.964 205.481 318.778C205.878 318.58 206.077 318.135 206.077 317.442ZM209.431 320.578V315.746L208.156 315.01V313.81L209.431 314.546V312.258L210.567 312.914V315.202L212.396 316.258V317.458L210.567 316.402V321.218C210.567 321.559 210.627 321.839 210.747 322.058C210.867 322.266 211.079 322.458 211.384 322.634L212.507 323.282V324.482L211.273 323.77C210.608 323.386 210.133 322.941 209.846 322.434C209.569 321.933 209.431 321.314 209.431 320.578ZM214.6 315.914C214.461 315.994 214.286 315.973 214.073 315.85C213.861 315.728 213.685 315.546 213.547 315.306C213.408 315.066 213.339 314.824 213.339 314.578C213.339 314.333 213.408 314.17 213.547 314.09C213.685 314.01 213.861 314.032 214.073 314.154C214.286 314.277 214.461 314.458 214.6 314.698C214.738 314.938 214.808 315.181 214.808 315.426C214.808 315.672 214.738 315.834 214.6 315.914ZM213.491 325.05V316.89L214.627 317.546V325.706L213.491 325.05ZM221.962 328.885C221.316 329.28 220.475 329.178 219.44 328.581C218.406 327.984 217.56 327.112 216.905 325.965C216.258 324.813 215.935 323.618 215.935 322.381C215.935 321.144 216.258 320.328 216.905 319.933C217.56 319.533 218.406 319.632 219.44 320.229C220.475 320.826 221.316 321.701 221.962 322.853C222.618 324 222.946 325.192 222.946 326.429C222.946 327.666 222.618 328.485 221.962 328.885ZM217.75 325.589C218.184 326.405 218.747 327.013 219.44 327.413C220.133 327.813 220.697 327.856 221.131 327.541C221.565 327.226 221.782 326.632 221.782 325.757C221.782 324.882 221.565 324.037 221.131 323.221C220.697 322.405 220.133 321.797 219.44 321.397C218.747 320.997 218.184 320.954 217.75 321.269C217.316 321.584 217.099 322.178 217.099 323.053C217.099 323.928 217.316 324.773 217.75 325.589ZM227.713 325.005C228.572 325.501 229.26 326.197 229.778 327.093C230.304 327.995 230.567 329.085 230.567 330.365V334.909L229.431 334.253V329.789C229.431 328.947 229.265 328.211 228.932 327.581C228.609 326.947 228.138 326.451 227.519 326.093C226.854 325.709 226.332 325.675 225.953 325.989C225.574 326.304 225.385 326.92 225.385 327.837V331.917L224.249 331.261V323.101L225.233 323.669L225.385 324.861C225.921 324.371 226.697 324.419 227.713 325.005Z" fill="black"/>
<path d="M249.557 359.38V340.67L261.398 360.307L256.459 358.298L258.444 364.51L255.51 364.468L253.457 357.682L249.557 359.38Z" fill="black" stroke="white"/>
<circle cx="10.8325" cy="10.8325" r="10.8325" transform="matrix(0.866025 0.5 0 1 234.235 321.182)" stroke="black"/>
<path d="M237.514 334.232L241.95 341.915L249.719 337.43" stroke="black"/>
<path d="M667.855 162.159C667.855 157.741 664.754 155.95 660.927 158.159L484.258 260.159C480.432 262.368 477.33 267.741 477.33 272.159V416.159C477.33 420.577 480.432 422.368 484.258 420.159L660.927 318.159C664.754 315.95 667.855 310.577 667.855 306.159V162.159Z" fill="black" stroke="black" stroke-linejoin="bevel"/>
<path d="M665.484 164.971C665.484 162.209 663.546 161.09 661.154 162.471L486.009 263.591C483.618 264.971 481.679 268.329 481.679 271.091V402.973C481.679 405.735 483.618 406.854 486.009 405.473L661.154 304.353C663.546 302.972 665.484 299.615 665.484 296.853V164.971Z" fill="white" stroke="black" stroke-linejoin="bevel"/>
<rect width="5" height="144" transform="matrix(-0.866025 -0.5 0 1 477.33 272.159)" fill="black" stroke="black" stroke-linejoin="bevel"/>
<rect width="204" height="5" transform="matrix(-0.866025 0.5 0.866025 0.5 656.597 155.659)" fill="black" stroke="black" stroke-linejoin="bevel"/>
<path d="M665.826 157.674C664.473 156.893 662.7 157.136 660.927 158.16L656.597 155.66C658.37 154.636 660.143 154.393 661.496 155.174L665.826 157.674Z" fill="black" stroke="black" stroke-linejoin="bevel"/>
<path d="M477.33 272.159C477.33 267.741 480.431 262.368 484.258 260.159L479.928 257.659C476.101 259.868 472.999 265.241 472.999 269.659L477.33 272.159Z" fill="black" stroke="black" stroke-linejoin="bevel"/>
<path d="M479.359 420.644C478.007 419.863 477.33 418.207 477.33 416.159L473 413.659C473 415.707 473.676 417.363 475.029 418.144L479.359 420.644Z" fill="black" stroke="black" stroke-linejoin="bevel"/>
<path d="M674.784 308.159C670.958 305.95 664.754 305.95 660.928 308.159L484.259 410.159C480.432 412.368 480.432 415.95 484.259 418.159L600.306 485.159C604.132 487.368 610.336 487.368 614.162 485.159L790.832 383.159C794.658 380.95 794.658 377.368 790.832 375.159L674.784 308.159Z" fill="black" stroke="white" stroke-linejoin="bevel"/>
<rect width="200" height="84" rx="5" transform="matrix(-0.866025 0.5 0.866025 0.5 671.877 314.031)" fill="black" stroke="white" stroke-linejoin="bevel"/>
<rect width="10" height="10" rx="1" transform="matrix(-0.866025 0.5 0.866025 0.5 678.545 324.181)" fill="black" stroke="white" stroke-linejoin="bevel"/>
<rect width="15" height="10" rx="1" transform="matrix(-0.866025 0.5 0.866025 0.5 689.819 330.551)" fill="black" stroke="white" stroke-linejoin="bevel"/>
<rect width="20" height="10" rx="1" transform="matrix(-0.866025 0.5 0.866025 0.5 700.195 336.801)" fill="black" stroke="white" stroke-linejoin="bevel"/>
<rect width="12" height="10" rx="1" transform="matrix(-0.866025 0.5 0.866025 0.5 711.157 343.495)" fill="black" stroke="white" stroke-linejoin="bevel"/>
<rect width="10" height="10" rx="1" transform="matrix(-0.866025 0.5 0.866025 0.5 667.855 330.551)" fill="black" stroke="white" stroke-linejoin="bevel"/>
<rect width="10" height="10" rx="1" transform="matrix(-0.866025 0.5 0.866025 0.5 657.166 336.921)" fill="black" stroke="white" stroke-linejoin="bevel"/>
<rect width="10" height="10" rx="1" transform="matrix(-0.866025 0.5 0.866025 0.5 646.477 343.291)" fill="black" stroke="white" stroke-linejoin="bevel"/>
<rect width="10" height="10" rx="1" transform="matrix(-0.866025 0.5 0.866025 0.5 635.787 349.661)" fill="black" stroke="white" stroke-linejoin="bevel"/>
<rect width="10" height="10" rx="1" transform="matrix(-0.866025 0.5 0.866025 0.5 625.098 356.031)" fill="black" stroke="white" stroke-linejoin="bevel"/>
<rect width="10" height="10" rx="1" transform="matrix(-0.866025 0.5 0.866025 0.5 614.408 362.401)" fill="black" stroke="white" stroke-linejoin="bevel"/>
<rect width="10" height="10" rx="1" transform="matrix(-0.866025 0.5 0.866025 0.5 603.719 368.771)" fill="black" stroke="white" stroke-linejoin="bevel"/>
<rect width="10" height="10" rx="1" transform="matrix(-0.866025 0.5 0.866025 0.5 593.029 375.142)" fill="black" stroke="white" stroke-linejoin="bevel"/>
<rect width="10" height="10" rx="1" transform="matrix(-0.866025 0.5 0.866025 0.5 582.34 381.512)" fill="black" stroke="white" stroke-linejoin="bevel"/>
<rect width="10" height="10" rx="1" transform="matrix(-0.866025 0.5 0.866025 0.5 571.65 387.882)" fill="black" stroke="white" stroke-linejoin="bevel"/>
<rect width="10" height="10" rx="1" transform="matrix(-0.866025 0.5 0.866025 0.5 560.961 394.252)" fill="black" stroke="white" stroke-linejoin="bevel"/>
<rect width="10" height="10" rx="1" transform="matrix(-0.866025 0.5 0.866025 0.5 550.271 400.622)" fill="black" stroke="white" stroke-linejoin="bevel"/>
<rect width="10" height="10" rx="1" transform="matrix(-0.866025 0.5 0.866025 0.5 674.486 339.624)" fill="black" stroke="white" stroke-linejoin="bevel"/>
<rect width="10" height="10" rx="1" transform="matrix(-0.866025 0.5 0.866025 0.5 663.797 345.995)" fill="black" stroke="white" stroke-linejoin="bevel"/>
<rect width="10" height="10" rx="1" transform="matrix(-0.866025 0.5 0.866025 0.5 653.107 352.364)" fill="black" stroke="white" stroke-linejoin="bevel"/>
<rect width="10" height="10" rx="1" transform="matrix(-0.866025 0.5 0.866025 0.5 642.418 358.735)" fill="black" stroke="white" stroke-linejoin="bevel"/>
<rect width="10" height="10" rx="1" transform="matrix(-0.866025 0.5 0.866025 0.5 631.728 365.104)" fill="black" stroke="white" stroke-linejoin="bevel"/>
<rect width="10" height="10" rx="1" transform="matrix(-0.866025 0.5 0.866025 0.5 621.039 371.476)" fill="black" stroke="white" stroke-linejoin="bevel"/>
<rect width="10" height="10" rx="1" transform="matrix(-0.866025 0.5 0.866025 0.5 610.349 377.845)" fill="black" stroke="white" stroke-linejoin="bevel"/>
<rect width="10" height="10" rx="1" transform="matrix(-0.866025 0.5 0.866025 0.5 599.66 384.216)" fill="black" stroke="white" stroke-linejoin="bevel"/>
<rect width="10" height="10" rx="1" transform="matrix(-0.866025 0.5 0.866025 0.5 588.971 390.585)" fill="black" stroke="white" stroke-linejoin="bevel"/>
<rect width="10" height="10" rx="1" transform="matrix(-0.866025 0.5 0.866025 0.5 578.281 396.956)" fill="black" stroke="white" stroke-linejoin="bevel"/>
<rect width="10" height="10" rx="1" transform="matrix(-0.866025 0.5 0.866025 0.5 567.592 403.325)" fill="black" stroke="white" stroke-linejoin="bevel"/>
<rect width="10" height="10" rx="1" transform="matrix(-0.866025 0.5 0.866025 0.5 556.902 409.696)" fill="black" stroke="white" stroke-linejoin="bevel"/>
<rect width="10" height="10" rx="1" transform="matrix(-0.866025 0.5 0.866025 0.5 679.831 349.18)" fill="black" stroke="white" stroke-linejoin="bevel"/>
<rect width="10" height="10" rx="1" transform="matrix(-0.866025 0.5 0.866025 0.5 669.141 355.551)" fill="black" stroke="white" stroke-linejoin="bevel"/>
<rect width="10" height="10" rx="1" transform="matrix(-0.866025 0.5 0.866025 0.5 658.452 361.92)" fill="black" stroke="white" stroke-linejoin="bevel"/>
<rect width="10" height="10" rx="1" transform="matrix(-0.866025 0.5 0.866025 0.5 647.763 368.291)" fill="black" stroke="white" stroke-linejoin="bevel"/>
<rect width="10" height="10" rx="1" transform="matrix(-0.866025 0.5 0.866025 0.5 637.073 374.66)" fill="black" stroke="white" stroke-linejoin="bevel"/>
<rect width="10" height="10" rx="1" transform="matrix(-0.866025 0.5 0.866025 0.5 626.384 381.031)" fill="black" stroke="white" stroke-linejoin="bevel"/>
<rect width="10" height="10" rx="1" transform="matrix(-0.866025 0.5 0.866025 0.5 615.694 387.4)" fill="black" stroke="white" stroke-linejoin="bevel"/>
<rect width="10" height="10" rx="1" transform="matrix(-0.866025 0.5 0.866025 0.5 605.005 393.771)" fill="black" stroke="white" stroke-linejoin="bevel"/>
<rect width="10" height="10" rx="1" transform="matrix(-0.866025 0.5 0.866025 0.5 594.315 400.141)" fill="black" stroke="white" stroke-linejoin="bevel"/>
<rect width="10" height="10" rx="1" transform="matrix(-0.866025 0.5 0.866025 0.5 583.626 406.512)" fill="black" stroke="white" stroke-linejoin="bevel"/>
<rect width="10" height="10" rx="1" transform="matrix(-0.866025 0.5 0.866025 0.5 572.936 412.881)" fill="black" stroke="white" stroke-linejoin="bevel"/>
<rect width="10" height="10" rx="1" transform="matrix(-0.866025 0.5 0.866025 0.5 562.247 419.252)" fill="black" stroke="white" stroke-linejoin="bevel"/>
<rect width="10" height="10" rx="1" transform="matrix(-0.866025 0.5 0.866025 0.5 698.503 350.772)" fill="black" stroke="white" stroke-linejoin="bevel"/>
<rect width="10" height="10" rx="1" transform="matrix(-0.866025 0.5 0.866025 0.5 721.237 350.327)" fill="black" stroke="white" stroke-linejoin="bevel"/>
<rect width="10" height="10" rx="1" transform="matrix(-0.866025 0.5 0.866025 0.5 699.687 363.07)" fill="black" stroke="white" stroke-linejoin="bevel"/>
<rect width="10" height="10" rx="1" transform="matrix(-0.866025 0.5 0.866025 0.5 710.649 356.827)" fill="black" stroke="white" stroke-linejoin="bevel"/>
<rect width="10" height="10" rx="1" transform="matrix(-0.866025 0.5 0.866025 0.5 689.098 369.57)" fill="black" stroke="white" stroke-linejoin="bevel"/>
<rect width="10" height="10" rx="1" transform="matrix(-0.866025 0.5 0.866025 0.5 622.631 408.325)" fill="black" stroke="white" stroke-linejoin="bevel"/>
<rect width="10" height="10" rx="1" transform="matrix(-0.866025 0.5 0.866025 0.5 612.042 414.825)" fill="black" stroke="white" stroke-linejoin="bevel"/>
<rect width="10" height="5" rx="1" transform="matrix(-0.866025 0.5 0.866025 0.5 599.052 426.584)" fill="black" stroke="white" stroke-linejoin="bevel"/>
<rect width="10" height="5" rx="1" transform="matrix(-0.866025 0.5 0.866025 0.5 578.281 439.235)" fill="black" stroke="white" stroke-linejoin="bevel"/>
<path d="M584.898 430.834C584.42 430.558 583.645 430.558 583.166 430.834L576.238 434.834C575.76 435.11 575.76 435.558 576.238 435.834L579.702 437.834L588.362 432.834L584.898 430.834Z" fill="black" stroke="white" stroke-linejoin="bevel"/>
<path d="M588.362 432.834L579.702 437.834L583.166 439.834C583.645 440.11 584.42 440.11 584.898 439.834L591.827 435.834C592.305 435.558 592.305 435.11 591.827 434.834L588.362 432.834Z" fill="black" stroke="white" stroke-linejoin="bevel"/>
<rect width="61.236" height="10" rx="1" transform="matrix(-0.866025 0.5 0.866025 0.5 677.668 376.031)" fill="black" stroke="white" stroke-linejoin="bevel"/>
<rect width="10" height="10" rx="1" transform="matrix(-0.866025 0.5 0.866025 0.5 687.813 357.143)" fill="black" stroke="white" stroke-linejoin="bevel"/>
<rect width="10" height="10" rx="1" transform="matrix(-0.866025 0.5 0.866025 0.5 677.124 363.513)" fill="black" stroke="white" stroke-linejoin="bevel"/>
<rect width="10" height="10" rx="1" transform="matrix(-0.866025 0.5 0.866025 0.5 666.435 369.884)" fill="black" stroke="white" stroke-linejoin="bevel"/>
<rect width="10" height="10" rx="1" transform="matrix(-0.866025 0.5 0.866025 0.5 655.745 376.253)" fill="black" stroke="white" stroke-linejoin="bevel"/>
<rect width="10" height="10" rx="1" transform="matrix(-0.866025 0.5 0.866025 0.5 645.056 382.624)" fill="black" stroke="white" stroke-linejoin="bevel"/>
<rect width="10" height="10" rx="1" transform="matrix(-0.866025 0.5 0.866025 0.5 634.366 388.993)" fill="black" stroke="white" stroke-linejoin="bevel"/>
<rect width="10" height="10" rx="1" transform="matrix(-0.866025 0.5 0.866025 0.5 623.677 395.364)" fill="black" stroke="white" stroke-linejoin="bevel"/>
<rect width="10" height="10" rx="1" transform="matrix(-0.866025 0.5 0.866025 0.5 612.987 401.733)" fill="black" stroke="white" stroke-linejoin="bevel"/>
<rect width="10" height="10" rx="1" transform="matrix(-0.866025 0.5 0.866025 0.5 602.298 408.104)" fill="black" stroke="white" stroke-linejoin="bevel"/>
<rect width="10" height="10" rx="1" transform="matrix(-0.866025 0.5 0.866025 0.5 591.609 414.474)" fill="black" stroke="white" stroke-linejoin="bevel"/>
<rect width="20" height="10" rx="1" transform="matrix(-0.866025 0.5 0.866025 0.5 539.582 406.992)" fill="black" stroke="white" stroke-linejoin="bevel"/>
<rect width="25" height="10" rx="1" transform="matrix(-0.866025 0.5 0.866025 0.5 576.995 422.881)" fill="black" stroke="white" stroke-linejoin="bevel"/>
<path d="M546.807 416.65C546.329 416.374 545.554 416.374 545.075 416.65L533.817 423.15C533.339 423.426 533.339 423.874 533.817 424.15L541.611 428.65L552.173 434.042C552.655 434.287 553.384 434.276 553.842 434.016L559.127 431.02C559.621 430.74 559.615 430.279 559.114 430.003L550.133 425.061C549.654 424.797 549.624 424.362 550.065 424.078L553.829 421.649C554.263 421.369 554.242 420.943 553.782 420.677L546.807 416.65Z" fill="black" stroke="white" stroke-linejoin="bevel"/>
<rect width="161.807" height="5" rx="1" transform="matrix(-0.866025 0.5 0.866025 0.5 661.154 326.681)" fill="black" stroke="white" stroke-linejoin="bevel"/>
<rect width="10" height="5" rx="1" transform="matrix(-0.866025 0.5 0.866025 0.5 672.186 320.431)" fill="black" stroke="white" stroke-linejoin="bevel"/>
<rect width="5" height="5" rx="1" transform="matrix(-0.866025 0.5 0.866025 0.5 517.931 409.492)" fill="black" stroke="white" stroke-linejoin="bevel"/>
<rect width="100" height="47.4463" rx="5" transform="matrix(-0.866025 0.5 0.866025 0.5 705.994 381.019)" fill="black" stroke="white" stroke-linejoin="bevel"/>
<rect width="204" height="5" transform="matrix(-0.866025 0.5 0 1 790.832 383.159)" fill="black" stroke="white" stroke-linejoin="bevel"/>
<rect width="134" height="5" transform="matrix(-0.866025 -0.5 0 1 600.306 485.159)" fill="black" stroke="white" stroke-linejoin="bevel"/>
<path d="M793.701 379.159C793.701 380.721 792.605 382.135 790.832 383.159V388.159C792.605 387.135 793.701 385.721 793.701 384.159V379.159Z" fill="black" stroke="white" stroke-linejoin="bevel"/>
<path d="M614.162 485.159C610.336 487.368 604.132 487.368 600.306 485.159V490.159C604.132 492.368 610.336 492.368 614.162 490.159V485.159Z" fill="black" stroke="white" stroke-linejoin="bevel"/>
<path d="M481.389 414.159C481.389 415.721 482.485 417.135 484.259 418.159V423.159C482.485 422.135 481.389 420.721 481.389 419.159V414.159Z" fill="black" stroke="white" stroke-linejoin="bevel"/>
<rect x="-0.433013" y="0.75" width="148.387" height="28.3048" rx="6.5" transform="matrix(-0.866025 0.5 0 1 641.61 205.877)" stroke="black"/>
<rect x="-0.433013" y="0.75" width="16.3092" height="16.3092" rx="8.15458" transform="matrix(-0.866025 0.5 0 1 620.556 225.485)" stroke="black"/>
<path d="M609.249 241.708L612.175 243.397L619.093 231.414" stroke="black"/>
<path d="M634.083 230.507L626.559 226.163" stroke="black"/>
<path d="M626.577 234.82L634.065 221.85" stroke="black"/>
<rect x="-0.433013" y="0.75" width="16.3092" height="16.3092" rx="8.15458" transform="matrix(-0.866025 0.5 0 1 637.008 215.074)" stroke="black"/>
<path d="M524.455 294.435L523.277 295.115V283.915L524.385 283.275L529.595 288.907V280.267L530.773 279.587V290.787L529.665 291.427L524.455 285.795V294.435ZM535.744 288.013C534.691 288.621 533.841 288.728 533.195 288.333C532.557 287.933 532.238 287.109 532.238 285.861C532.238 284.624 532.548 283.442 533.167 282.317C533.786 281.181 534.594 280.325 535.592 279.749C536.599 279.168 537.402 279.05 538.003 279.397C538.603 279.733 538.917 280.496 538.945 281.685C538.945 281.802 538.936 281.994 538.917 282.261L533.43 285.429V285.541C533.449 286.32 533.656 286.84 534.054 287.101C534.46 287.346 534.996 287.277 535.661 286.893C536.169 286.6 536.599 286.208 536.95 285.717C537.31 285.21 537.55 284.661 537.67 284.069L538.82 283.405C538.682 284.317 538.335 285.2 537.781 286.053C537.227 286.896 536.548 287.549 535.744 288.013ZM533.499 284.301L537.726 281.861C537.67 281.2 537.453 280.786 537.074 280.621C536.696 280.456 536.206 280.546 535.606 280.893C535.07 281.202 534.599 281.677 534.192 282.317C533.786 282.957 533.555 283.618 533.499 284.301ZM541.633 284.517L539.346 277.677L540.538 276.989L542.298 282.613L544.155 274.901L545.208 274.293L546.967 279.917L548.81 272.213L549.96 271.549L547.605 281.069L546.358 281.789L544.653 276.709L542.88 283.797L541.633 284.517ZM555.585 266.686C555.447 266.926 555.271 267.107 555.059 267.23C554.846 267.352 554.671 267.374 554.532 267.294C554.394 267.214 554.324 267.051 554.324 266.806C554.324 266.56 554.394 266.318 554.532 266.078C554.671 265.838 554.846 265.656 555.059 265.534C555.271 265.411 555.447 265.39 555.585 265.47C555.724 265.55 555.793 265.712 555.793 265.958C555.793 266.203 555.724 266.446 555.585 266.686ZM554.477 277.102V268.942L555.613 268.286V276.446L554.477 277.102ZM560.634 265.291C561.493 264.795 562.181 264.696 562.698 264.995C563.225 265.288 563.488 266.075 563.488 267.355V271.899L562.352 272.555V268.091C562.352 267.248 562.186 266.704 561.853 266.459C561.53 266.198 561.059 266.246 560.44 266.603C559.775 266.987 559.253 267.555 558.874 268.307C558.495 269.059 558.306 269.894 558.306 270.811V274.891L557.17 275.547V267.387L558.153 266.819L558.306 267.835C558.842 266.726 559.618 265.878 560.634 265.291ZM570.426 260.982L570.578 259.646L571.562 259.078V270.438L570.426 271.094V266.582C569.835 267.862 569.026 268.798 568.001 269.39C567.003 269.966 566.186 270.07 565.548 269.702C564.92 269.318 564.606 268.475 564.606 267.174C564.606 265.936 564.925 264.75 565.562 263.614C566.2 262.467 567.013 261.608 568.001 261.038C569.128 260.387 569.936 260.368 570.426 260.982ZM568.112 268.158C568.805 267.758 569.364 267.158 569.788 266.358C570.223 265.552 570.44 264.712 570.44 263.838C570.44 262.942 570.223 262.336 569.788 262.022C569.364 261.702 568.805 261.742 568.112 262.142C567.41 262.547 566.842 263.158 566.407 263.974C565.983 264.774 565.77 265.616 565.77 266.502C565.77 267.387 565.983 267.99 566.407 268.31C566.842 268.614 567.41 268.563 568.112 268.158ZM578.057 259.408V255.328L579.193 254.672V262.832L578.209 263.4L578.057 262.4C577.521 263.499 576.768 264.328 575.798 264.888C574.957 265.373 574.283 265.464 573.775 265.16C573.267 264.856 573.013 264.064 573.013 262.784V258.24L574.149 257.584V262.048C574.149 262.891 574.306 263.445 574.62 263.712C574.944 263.963 575.401 263.917 575.992 263.576C576.639 263.203 577.142 262.645 577.502 261.904C577.872 261.157 578.057 260.325 578.057 259.408ZM581.85 251.522C581.712 251.762 581.536 251.943 581.324 252.066C581.111 252.188 580.936 252.21 580.797 252.13C580.659 252.05 580.589 251.887 580.589 251.642C580.589 251.396 580.659 251.154 580.797 250.914C580.936 250.674 581.111 250.492 581.324 250.37C581.536 250.247 581.712 250.226 581.85 250.306C581.989 250.386 582.058 250.548 582.058 250.794C582.058 251.039 581.989 251.282 581.85 251.522ZM580.742 261.938V253.778L581.878 253.122V261.282L580.742 261.938ZM586.705 250.335L587.023 250.151V251.431L586.455 251.759C585.781 252.148 585.296 252.69 585 253.383C584.714 254.071 584.571 254.799 584.571 255.567V259.727L583.435 260.383V252.223L584.418 251.655L584.571 252.799C585.005 251.727 585.716 250.906 586.705 250.335ZM590.113 256.575L587.356 249.959L588.561 249.263L590.737 254.519L592.843 246.791L594.048 246.095L590.792 257.511C590.552 258.365 590.326 258.975 590.113 259.343C589.901 259.722 589.559 260.047 589.088 260.319L587.73 261.103V259.903L588.741 259.319C589.055 259.138 589.268 258.957 589.379 258.775C589.499 258.589 589.628 258.253 589.767 257.767L590.113 256.575ZM596.295 249.614L595.422 250.118L595.242 242.366L596.462 241.662L596.295 249.614ZM595.284 253.398C595.136 253.313 595.062 253.137 595.062 252.87C595.062 252.603 595.136 252.347 595.284 252.102C595.432 251.846 595.621 251.651 595.852 251.518C596.083 251.385 596.272 251.361 596.42 251.446C596.568 251.521 596.642 251.691 596.642 251.958C596.642 252.225 596.568 252.486 596.42 252.742C596.272 252.987 596.083 253.177 595.852 253.31C595.621 253.443 595.432 253.473 595.284 253.398Z" fill="black"/>
<path d="M621.039 261.645V242.935L632.88 248.899L627.94 252.594L629.925 256.514L626.991 259.86L624.938 255.444L621.039 261.645Z" fill="black" stroke="white"/>
<path d="M577.732 281.182C581.875 276.029 588.59 272.151 592.732 272.521L619.627 274.924C623.769 275.294 623.769 279.771 619.627 284.924L592.732 318.381C588.59 323.534 581.875 327.411 577.732 327.041L550.838 324.639C546.696 324.269 546.696 319.792 550.838 314.639L577.732 281.182Z" fill="white" stroke="black" stroke-linejoin="bevel"/>
<rect width="41.8946" height="10.4737" transform="matrix(0.75 0.0669873 0 1 548.574 324.437)" fill="white" stroke="black" stroke-linejoin="bevel"/>
<rect width="41.8946" height="10.4737" transform="matrix(0.75 -0.933013 0 1 590.469 321.197)" fill="white" stroke="black" stroke-linejoin="bevel"/>
<path d="M547.481 319.691C547.481 321.055 548.574 323.169 548.574 324.437V334.911C547.234 334.791 547.481 334.511 547.481 333.147L547.481 319.691Z" fill="white" stroke="black" stroke-linejoin="bevel"/>
<path d="M579.996 327.243C582.888 327.501 587.577 324.794 590.47 321.196V331.67C587.577 335.268 582.888 337.975 579.996 337.717V327.243Z" fill="white" stroke="black" stroke-linejoin="bevel"/>
<path d="M622.799 277.706C622.799 279.069 623.23 280.441 621.89 282.108L621.889 292.529C621.889 292.529 622.799 290.708 622.799 289.345V277.706Z" fill="white" stroke="black" stroke-linejoin="bevel"/>
<path d="M604.809 302.957L590.427 301.672L577.795 317.386" stroke="black"/>
<path d="M590.48 301.642L604.863 283.75L592.231 282.622" stroke="black"/>
<path d="M590.534 301.611L576.152 300.326L563.52 316.04" stroke="black"/>
<path d="M583.443 300.961L569.06 299.677L563.567 306.51" stroke="black"/>
<path d="M586.816 301.285L572.434 300L577.458 293.75" stroke="black"/>
<path d="M570.718 316.632L577.806 307.814L570.567 307.167" stroke="black"/>
<path d="M594.779 290.155L592.091 289.915L583.329 300.815" stroke="black"/>
<path d="M602.066 280.914L599.378 280.674L597.567 282.927" stroke="black"/>
<path d="M583.81 294.358L581.122 294.118L576.115 300.346" stroke="black"/>
<path d="M594.623 285.098L595.756 285.199L597.567 282.946" stroke="black"/>
<path d="M580.386 303.128L581.518 303.229L583.329 300.976" stroke="black"/>
<circle cx="1.88924" cy="1.88924" r="1.38924" transform="matrix(0.75 -0.933013 0.75 0.0669873 573.636 320.372)" stroke="black"/>
<circle cx="1.88924" cy="1.88924" r="1.38924" transform="matrix(0.75 -0.933013 0.75 0.0669873 590.353 286.814)" stroke="black"/>
<circle cx="1.88924" cy="1.88924" r="1.38924" transform="matrix(0.75 -0.933013 0.75 0.0669873 576.115 304.844)" stroke="black"/>
<circle cx="1.88924" cy="1.88924" r="1.38924" transform="matrix(0.75 -0.933013 0.75 0.0669873 559.272 309.973)" stroke="black"/>
<circle cx="1.88924" cy="1.88924" r="1.38924" transform="matrix(0.75 -0.933013 0.75 0.0669873 566.766 320.003)" stroke="black"/>
<circle cx="1.88924" cy="1.88924" r="1.38924" transform="matrix(0.75 -0.933013 0.75 0.0669873 593.187 291.951)" stroke="black"/>
<circle cx="1.88924" cy="1.88924" r="1.38924" transform="matrix(0.75 -0.933013 0.75 0.0669873 559.272 319.077)" stroke="black"/>
<circle cx="1.88924" cy="1.88924" r="1.38924" transform="matrix(0.75 -0.933013 0.75 0.0669873 600.513 282.838)" stroke="black"/>
<circle cx="1.88924" cy="1.88924" r="1.38924" transform="matrix(0.75 -0.933013 0.75 0.0669873 581.858 296.603)" stroke="black"/>
<circle cx="1.88924" cy="1.88924" r="1.38924" transform="matrix(0.75 -0.933013 0.75 0.0669873 575.834 293.977)" stroke="black"/>
<circle cx="1.88924" cy="1.88924" r="1.38924" transform="matrix(0.75 0.0669873 -0.75 0.933013 591.007 280.532)" stroke="black"/>
<path d="M397.717 57.5654V0.174805" stroke="black"/>
<path d="M446.682 61.9967L475.377 12.2949" stroke="black"/>
<path d="M348.752 61.9967L320.057 12.2949" stroke="black"/>
<path d="M345.442 190.552C345.32 190.621 345.568 190.486 345.442 190.552Z" fill="#D9D9D9"/>
<path d="M393.661 131.094L459.557 180.718C461.071 181.811 462.224 183.15 463.061 184.818M395.869 220.021L422.736 225.25C424.428 225.574 426.103 226.281 427.717 226.882C437.499 230.527 436.2 217.899 426.236 214.785L379.553 200.193L439.071 219.04C445.669 221.129 453.562 219.04 454.093 209.937L388.275 184.382L455.216 210.373C458.727 211.736 462.655 209.821 463.744 206.216C464.619 203.321 463.369 200.206 460.736 198.718L403.537 166.394L449.1 192.142C457.712 197.009 465.717 192.142 463.061 184.818M395.869 220.021L376.438 216.393C371.302 215.411 366.604 212.843 363.004 209.051L313.612 157.024C311.079 154.356 307.989 152.28 304.561 150.944L189.972 106.275C168.488 97.8999 159.516 72.3529 171.045 52.3842C181.439 34.381 204.46 28.2126 222.463 38.6068L339.447 106.148C348.208 102.71 373.433 94.7843 383.861 95.155C389.475 95.3545 394.441 96.8254 399.041 99.0725M395.869 220.021L368.326 225.29C368.235 225.307 368.138 225.326 368.037 225.346C363.777 226.179 357.427 226.929 356.382 222.717C355.714 220.021 362.847 216.401 368.597 213.467L351.991 219.079C345.439 221.154 338.537 216.882 337.271 210.15M463.061 184.818L490.65 155.757C493.183 153.089 497.176 149.453 500.604 148.117L615.193 103.447C636.677 95.0728 645.649 69.5258 634.12 49.557C623.726 31.5538 600.705 25.3855 582.702 35.7796L465.717 103.321C456.957 99.8826 431.731 91.9571 421.304 92.3278C413.547 92.6036 406.135 95.2801 399.041 99.0725M396.657 133.25L404.823 128.809C404.867 128.786 404.91 128.761 404.948 128.729C405.808 128.023 405.007 126.61 403.936 127.034L358.171 145.119C351.121 147.905 342.906 145.724 345.423 138.574C348.777 129.048 361.127 124.879 369.445 119.152C378.665 112.805 388.502 104.707 399.041 99.0725M345.442 190.552L330.325 198.758C327.693 200.246 326.443 203.361 327.318 206.256C328.62 210.566 332.575 211.073 337.271 210.15M345.442 190.552C339.215 193.811 332.934 197.906 328.671 193.524C327.029 191.836 326.698 189.271 327.734 187.157C329.157 184.255 331.838 180.785 334.409 178.931M345.442 190.552C345.568 190.486 345.32 190.621 345.442 190.552ZM337.271 210.15C337.262 210.103 337.28 210.197 337.271 210.15ZM337.271 210.15C344.395 208.75 353.19 203.878 356.76 202.533" stroke="black"/>
</svg>
