<svg width="1332" height="539" viewBox="0 0 1332 539" fill="none" xmlns="http://www.w3.org/2000/svg">
<g clip-path="url(#clip0_134_3645)">
<rect width="79.5364" height="79.5364" transform="matrix(0.866025 0.5 -0.866025 0.5 558.498 209.109)" stroke="black" stroke-linejoin="bevel"/>
<rect width="79.5364" height="79.5364" transform="matrix(0.866025 0.5 0 1 489.617 248.878)" stroke="black" stroke-linejoin="bevel"/>
<rect width="79.5364" height="79.5364" transform="matrix(0.866025 -0.5 0 1 558.498 288.646)" stroke="black" stroke-linejoin="bevel"/>
<rect width="79.5364" height="79.5364" transform="matrix(0.866025 0.5 -0.866025 0.5 282.974 207.458)" stroke="black" stroke-linejoin="bevel"/>
<rect width="79.5364" height="79.5364" transform="matrix(0.866025 0.5 0 1 214.093 247.226)" stroke="black" stroke-linejoin="bevel"/>
<rect width="79.5364" height="79.5364" transform="matrix(0.866025 -0.5 0 1 282.974 286.994)" stroke="black" stroke-linejoin="bevel"/>
<rect width="79.5364" height="79.5364" transform="matrix(0.866025 0.5 -0.866025 0.5 490.169 8.90137)" stroke="black" stroke-linejoin="bevel"/>
<rect width="79.5364" height="159.073" transform="matrix(0.866025 0.5 0 1 421.288 48.6696)" stroke="black" stroke-linejoin="bevel"/>
<rect width="79.5364" height="159.073" transform="matrix(0.866025 -0.5 0 1 490.169 88.4377)" fill="#C5C5C5" stroke="black" stroke-linejoin="bevel"/>
<path d="M464.928 23.2609L534.29 63.1659L534.29 143.163L517.091 153.615L516.171 73.5199L448.362 32.8383L464.928 23.2609Z" stroke="black"/>
<rect width="31.2564" height="37.2094" rx="2" transform="matrix(0.866025 -0.5 0 1 497.829 197.608)" fill="white" stroke="black"/>
<rect width="79.5364" height="79.5364" transform="matrix(0.866025 0.5 -0.866025 0.5 214.645 7.25)" stroke="black" stroke-linejoin="bevel"/>
<rect width="79.5364" height="159.073" transform="matrix(0.866025 0.5 0 1 145.764 47.0182)" stroke="black" stroke-linejoin="bevel"/>
<rect width="79.5364" height="159.073" transform="matrix(0.866025 -0.5 0 1 214.645 86.7864)" fill="#C5C5C5" stroke="black" stroke-linejoin="bevel"/>
<path d="M188.247 22.2158L257.609 62.1208L257.608 142.118L240.41 152.57L239.489 72.4749L171.68 31.7932L188.247 22.2158Z" stroke="black"/>
<rect width="31.2564" height="37.2094" rx="2" transform="matrix(0.866025 -0.5 0 1 222.305 195.956)" fill="white" stroke="black"/>
<rect width="79.5364" height="79.5364" transform="matrix(0.866025 0.5 -0.866025 0.5 627.928 8.90137)" stroke="black" stroke-linejoin="bevel"/>
<rect width="79.5364" height="159.073" transform="matrix(0.866025 0.5 0 1 559.047 48.6696)" stroke="black" stroke-linejoin="bevel"/>
<rect width="79.5364" height="159.073" transform="matrix(0.866025 -0.5 0 1 627.928 88.4377)" fill="#C5C5C5" stroke="black" stroke-linejoin="bevel"/>
<path d="M650.834 22.2162L581.472 62.1212L581.472 142.119L598.671 152.57L599.591 72.4753L667.4 31.7936L650.834 22.2162Z" stroke="black"/>
<rect width="31.2564" height="37.2094" rx="2" transform="matrix(0.866025 -0.5 0 1 635.588 197.608)" fill="white" stroke="black"/>
<rect width="79.5364" height="79.5364" transform="matrix(0.866025 0.5 -0.866025 0.5 351.855 7.25)" stroke="black" stroke-linejoin="bevel"/>
<rect width="79.5364" height="159.073" transform="matrix(0.866025 0.5 0 1 282.974 47.0182)" stroke="black" stroke-linejoin="bevel"/>
<rect width="79.5364" height="159.073" transform="matrix(0.866025 -0.5 0 1 351.855 86.7864)" fill="#C5C5C5" stroke="black" stroke-linejoin="bevel"/>
<path d="M374.761 20.5648L305.399 60.4698L305.399 140.467L322.598 150.919L323.518 70.8239L391.327 30.1422L374.761 20.5648Z" stroke="black"/>
<rect width="31.2564" height="37.2094" rx="2" transform="matrix(0.866025 -0.5 0 1 359.515 195.956)" fill="white" stroke="black"/>
<rect width="79.5364" height="79.5364" transform="matrix(0.866025 0.5 -0.866025 0.5 420.74 130.258)" fill="white" stroke="black" stroke-linejoin="bevel"/>
<rect width="79.5364" height="79.5364" transform="matrix(0.866025 0.5 0 1 351.859 170.026)" fill="white" stroke="black" stroke-linejoin="bevel"/>
<rect width="79.5364" height="79.5364" transform="matrix(0.866025 -0.5 0 1 420.74 209.794)" fill="#C5C5C5" stroke="black" stroke-linejoin="bevel"/>
<rect width="27.6229" height="17.5821" rx="2" transform="matrix(0.866025 0.5 0 1 387.939 241.621)" stroke="black"/>
<path d="M444.037 143.716L376.995 184.355V202.263L394.194 212.714L395.115 194.709L460.604 153.293L444.037 143.716Z" stroke="black"/>
<rect width="79.5364" height="79.5364" transform="matrix(0.866025 0.5 -0.866025 0.5 145.216 128.606)" fill="white" stroke="black" stroke-linejoin="bevel"/>
<rect width="79.5364" height="79.5364" transform="matrix(0.866025 0.5 0 1 76.335 168.375)" stroke="black" stroke-linejoin="bevel"/>
<rect width="79.5364" height="79.5364" transform="matrix(0.866025 -0.5 0 1 145.216 208.143)" fill="#C5C5C5" stroke="black" stroke-linejoin="bevel"/>
<rect width="27.6229" height="17.5821" rx="2" transform="matrix(0.866025 0.5 0 1 112.415 239.97)" stroke="black"/>
<path d="M168.513 142.064L101.471 182.704V200.612L118.669 211.063L119.59 193.058L185.08 151.642L168.513 142.064Z" stroke="black"/>
<rect width="79.5364" height="79.5364" transform="matrix(0.866025 0.5 -0.866025 0.5 558.501 129.574)" fill="white" stroke="black" stroke-linejoin="bevel"/>
<rect width="79.5364" height="79.5364" transform="matrix(0.866025 0.5 0 1 489.62 169.342)" fill="white" stroke="black" stroke-linejoin="bevel"/>
<rect width="79.5364" height="79.5364" transform="matrix(0.866025 -0.5 0 1 558.501 209.111)" fill="#C5C5C5" stroke="black" stroke-linejoin="bevel"/>
<path d="M581.065 142.758L514.374 184.358V202.265L531.572 212.717L532.493 194.712L597.632 152.335L581.065 142.758Z" fill="white" stroke="black"/>
<rect width="27.6229" height="17.5821" rx="2" transform="matrix(0.866025 0.5 0 1 525.317 239.739)" fill="white" stroke="black"/>
<rect width="79.5364" height="79.5364" transform="matrix(0.866025 0.5 -0.866025 0.5 282.977 127.923)" fill="white" stroke="black" stroke-linejoin="bevel"/>
<rect width="79.5364" height="79.5364" transform="matrix(0.866025 0.5 0 1 214.096 167.691)" fill="white" stroke="black" stroke-linejoin="bevel"/>
<rect width="79.5364" height="79.5364" transform="matrix(0.866025 -0.5 0 1 282.977 207.459)" fill="#C5C5C5" stroke="black" stroke-linejoin="bevel"/>
<path d="M305.541 141.107L238.849 182.706V200.614L256.048 211.065L256.969 193.06L322.107 150.684L305.541 141.107Z" fill="white" stroke="black"/>
<rect width="27.6229" height="17.5821" rx="2" transform="matrix(0.866025 0.5 0 1 249.792 238.087)" fill="white" stroke="black"/>
<rect width="79.5364" height="79.5364" transform="matrix(0.866025 0.5 -0.866025 0.5 490.166 247.884)" fill="white" stroke="black" stroke-linejoin="bevel"/>
<rect width="79.5364" height="79.5364" transform="matrix(0.866025 0.5 0 1 421.285 287.652)" fill="white" stroke="black" stroke-linejoin="bevel"/>
<rect width="79.5364" height="79.5364" transform="matrix(0.866025 -0.5 0 1 490.166 327.42)" fill="#C5C5C5" stroke="black" stroke-linejoin="bevel"/>
<path d="M464.928 262.571L531.971 303.21V321.118L514.772 331.569L513.851 313.564L448.362 272.148L464.928 262.571Z" fill="white" stroke="black"/>
<rect width="27.6229" height="17.5821" rx="2" transform="matrix(0.866025 -0.5 0 1 528.152 356.511)" fill="white" stroke="black"/>
<rect width="79.5364" height="79.5364" transform="matrix(0.866025 0.5 -0.866025 0.5 214.642 246.233)" fill="white" stroke="black" stroke-linejoin="bevel"/>
<rect width="79.5364" height="79.5364" transform="matrix(0.866025 0.5 0 1 145.761 286.001)" fill="white" stroke="black" stroke-linejoin="bevel"/>
<rect width="79.5364" height="79.5364" transform="matrix(0.866025 -0.5 0 1 214.642 325.769)" fill="#C5C5C5" stroke="black" stroke-linejoin="bevel"/>
<path d="M189.404 260.919L256.446 301.559V319.466L239.248 329.918L238.327 311.913L172.837 270.497L189.404 260.919Z" fill="white" stroke="black"/>
<rect width="27.6229" height="17.5821" rx="2" transform="matrix(0.866025 -0.5 0 1 252.628 354.859)" fill="white" stroke="black"/>
<rect width="79.5364" height="159.073" transform="matrix(0.866025 0.5 -0.866025 0.5 696.811 206.742)" fill="white" stroke="black" stroke-linejoin="bevel"/>
<rect width="79.5364" height="79.5364" transform="matrix(0.866025 0.5 0 1 559.049 286.279)" fill="white" stroke="black" stroke-linejoin="bevel"/>
<rect width="159.073" height="79.5364" transform="matrix(0.866025 -0.5 0 1 627.93 326.047)" fill="#C5C5C5" stroke="black" stroke-linejoin="bevel"/>
<path d="M723.04 221.724L586.124 302.241V320.149L603.322 330.6L604.243 312.595L739.606 231.301L723.04 221.724Z" fill="white" stroke="black"/>
<rect width="31.2564" height="37.2094" rx="2" transform="matrix(0.866025 -0.5 0 1 638.446 333.539)" fill="white" stroke="black"/>
<rect width="79.5364" height="79.5364" transform="matrix(0.866025 0.5 -0.866025 0.5 352.407 246.511)" fill="white" stroke="black" stroke-linejoin="bevel"/>
<rect width="79.5364" height="79.5364" transform="matrix(0.866025 0.5 0 1 283.526 286.279)" fill="white" stroke="black" stroke-linejoin="bevel"/>
<rect width="79.5364" height="79.5364" transform="matrix(0.866025 -0.5 0 1 352.407 326.047)" fill="#C5C5C5" stroke="black" stroke-linejoin="bevel"/>
<path d="M327.17 260.913L394.212 301.553V319.46L377.013 329.912L376.092 311.907L310.603 270.49L327.17 260.913Z" fill="white" stroke="black"/>
<rect width="27.6229" height="35.0654" rx="2" transform="matrix(0.866025 0.5 0 1 290.478 304.512)" stroke="black"/>
<rect width="79.5364" height="79.5364" transform="matrix(0.866025 0.5 -0.866025 0.5 76.8811 246.51)" stroke="black" stroke-linejoin="bevel"/>
<rect width="79.5364" height="79.5364" transform="matrix(0.866025 0.5 0 1 8 286.278)" stroke="black" stroke-linejoin="bevel"/>
<rect width="79.5364" height="79.5364" transform="matrix(0.866025 -0.5 0 1 76.8811 326.046)" fill="#C5C5C5" stroke="black" stroke-linejoin="bevel"/>
<path d="M51.6434 261.912L118.686 302.552V320.459L101.487 330.911L100.566 312.906L35.0769 271.49L51.6434 261.912Z" fill="white" stroke="black"/>
<rect width="27.6229" height="35.0654" rx="2" transform="matrix(0.866025 0.5 0 1 14.9517 304.511)" stroke="black"/>
<path d="M1331 254.085L1417.99 204.512C1417.99 204.512 1344.13 160.572 1285.86 160.478C1227.43 160.383 1159.44 204.512 1159.44 204.512" stroke="black"/>
<path d="M1330.3 305.581L1330.79 258.226C1330.79 258.221 1330.78 258.217 1330.78 258.212C1330.65 258.105 1330.46 257.948 1330.2 257.746C1329.69 257.342 1328.92 256.764 1327.91 256.068C1325.9 254.677 1322.93 252.819 1319.11 250.96C1311.47 247.242 1300.44 243.525 1286.85 243.525C1273.24 243.525 1262.47 246.725 1255.09 249.921C1251.41 251.52 1248.57 253.117 1246.66 254.312C1245.7 254.91 1244.98 255.407 1244.5 255.753C1244.26 255.921 1244.08 256.054 1243.96 256.145V305.564C1244 305.539 1244.05 305.514 1244.09 305.488C1244.67 305.134 1245.53 304.628 1246.64 304.023C1248.85 302.811 1252.05 301.198 1256 299.585C1263.89 296.36 1274.81 293.128 1286.85 293.128C1298.89 293.128 1309.94 296.359 1317.97 299.583C1321.99 301.196 1325.26 302.809 1327.53 304.02C1328.66 304.625 1329.54 305.13 1330.14 305.485C1330.2 305.518 1330.25 305.55 1330.3 305.581Z" fill="#878787" stroke="black"/>
<path d="M900.622 454.298L815.298 404.391" stroke="black"/>
<path d="M942.946 429.01L857.622 379.104" stroke="black"/>
<path d="M985.608 404.391L900.284 354.485" stroke="black"/>
<path d="M1028.27 379.01L942.946 329.104" stroke="black"/>
<path d="M1070.93 354.485L985.608 304.579" stroke="black"/>
<path d="M1114.95 329.532L1029.62 279.626" stroke="black"/>
<path d="M1159.04 304.673L1073.71 254.766" stroke="black"/>
<path d="M1200.27 279.626L1114.95 229.719" stroke="black"/>
<rect width="100" height="445" transform="matrix(0.866025 0.5 -0.866025 0.5 1157.84 205.352)" stroke="black" stroke-linejoin="bevel"/>
<rect width="100" height="50" transform="matrix(0.866025 0.5 0 1 772.46 427.852)" fill="#C5C5C5" stroke="black" stroke-linejoin="bevel"/>
<rect width="445" height="50" transform="matrix(0.866025 -0.5 0 1 859.063 477.852)" fill="#878787" stroke="black" stroke-linejoin="bevel"/>
<path d="M1289.66 242.877L1245.24 167.373" stroke="black"/>
<path d="M1289.84 243.025L1332.18 167.015" stroke="black"/>
<rect width="79.5364" height="79.5364" transform="matrix(0.866025 0.5 -0.866025 0.5 970.504 248.877)" fill="#FEB96B" stroke="black" stroke-linejoin="bevel"/>
<rect width="79.5364" height="79.5364" transform="matrix(0.866025 0.5 0 1 901.623 288.645)" fill="#F39648" stroke="black" stroke-linejoin="bevel"/>
<rect width="79.5364" height="79.5364" transform="matrix(0.866025 -0.5 0 1 970.504 328.413)" fill="#D2714E" stroke="black" stroke-linejoin="bevel"/>
<path d="M993.068 262.061L926.377 303.66V321.568L943.575 332.02L944.496 314.014L1009.63 271.638L993.068 262.061Z" fill="#D2714E" stroke="black"/>
<rect width="27.6229" height="17.5821" rx="2" transform="matrix(0.866025 0.5 0 1 937.32 359.041)" fill="white" stroke="black"/>
<rect width="79.5364" height="79.5364" transform="matrix(0.866025 0.5 -0.866025 0.5 1108.27 166.381)" fill="#FEB96B" stroke="black" stroke-linejoin="bevel"/>
<rect width="79.5364" height="79.5364" transform="matrix(0.866025 0.5 0 1 1039.38 206.149)" fill="#F39648" stroke="black" stroke-linejoin="bevel"/>
<rect width="79.5364" height="79.5364" transform="matrix(0.866025 -0.5 0 1 1108.27 245.918)" fill="#D2714E" stroke="black" stroke-linejoin="bevel"/>
<path d="M1130.83 179.565L1064.14 221.165V239.072L1081.34 249.524L1082.26 231.519L1147.4 189.142L1130.83 179.565Z" fill="#D2714E" stroke="black"/>
<rect width="27.6229" height="17.5821" rx="2" transform="matrix(0.866025 0.5 0 1 1075.08 276.546)" fill="white" stroke="black"/>
<rect width="79.5364" height="79.5364" transform="matrix(0.866025 0.5 -0.866025 0.5 696.813 128.861)" fill="#FEB96B" stroke="black" stroke-linejoin="bevel"/>
<rect width="79.5364" height="79.5364" transform="matrix(0.866025 0.5 0 1 627.932 168.63)" fill="#F39648" stroke="black" stroke-linejoin="bevel"/>
<rect width="79.5364" height="79.5364" transform="matrix(0.866025 -0.5 0 1 696.813 208.398)" fill="#D2714E" stroke="black" stroke-linejoin="bevel"/>
<path d="M719.377 142.045L652.685 183.645V201.552L669.884 212.004L670.805 193.999L735.943 151.623L719.377 142.045Z" fill="#D2714E" stroke="black"/>
<rect width="27.6229" height="17.5821" rx="2" transform="matrix(0.866025 0.5 0 1 663.628 239.026)" fill="white" stroke="black"/>
<mask id="mask0_134_3645" style="mask-type:alpha" maskUnits="userSpaceOnUse" x="649" y="87" width="166" height="167">
<circle cx="731.938" cy="170.208" r="82.8154" fill="#D9D9D9"/>
</mask>
<g mask="url(#mask0_134_3645)">
<rect width="91.4567" height="91.4567" transform="matrix(0.866025 0.5 -0.866025 0.5 707.136 105.021)" fill="#FEB96B" stroke="black" stroke-linejoin="bevel"/>
<rect width="91.4567" height="91.4567" transform="matrix(0.866025 0.5 0 1 627.932 150.75)" fill="#F39648" stroke="black" stroke-linejoin="bevel"/>
<rect width="91.4567" height="91.4567" transform="matrix(0.866025 -0.5 0 1 707.136 196.478)" fill="#D2714E" stroke="black" stroke-linejoin="bevel"/>
<path d="M733.082 120.181L656.395 168.015V188.606L676.172 200.624L677.231 179.921L752.131 131.193L733.082 120.181Z" fill="#D2714E" stroke="black"/>
<rect width="31.7627" height="20.2172" rx="2" transform="matrix(0.866025 0.5 0 1 668.978 231.696)" fill="white" stroke="black"/>
</g>
<mask id="path-108-inside-1_134_3645" fill="white">
<path fill-rule="evenodd" clip-rule="evenodd" d="M640.707 170.971C640.707 221.101 681.346 261.74 731.477 261.74C752.758 261.74 772.328 254.417 787.805 242.153L869.768 323.911C871.745 325.883 874.916 325.977 877.007 324.124C879.289 322.102 879.391 318.572 877.229 316.421L795.604 235.211C812.063 218.78 822.246 196.065 822.246 170.971C822.246 120.84 781.607 80.2012 731.477 80.2012C681.346 80.2012 640.707 120.84 640.707 170.971ZM731.748 252.522C776.692 252.522 813.127 216.088 813.127 171.143C813.127 126.198 776.692 89.7637 731.748 89.7637C686.803 89.7637 650.368 126.198 650.368 171.143C650.368 216.088 686.803 252.522 731.748 252.522Z"/>
</mask>
<path fill-rule="evenodd" clip-rule="evenodd" d="M640.707 170.971C640.707 221.101 681.346 261.74 731.477 261.74C752.758 261.74 772.328 254.417 787.805 242.153L869.768 323.911C871.745 325.883 874.916 325.977 877.007 324.124C879.289 322.102 879.391 318.572 877.229 316.421L795.604 235.211C812.063 218.78 822.246 196.065 822.246 170.971C822.246 120.84 781.607 80.2012 731.477 80.2012C681.346 80.2012 640.707 120.84 640.707 170.971ZM731.748 252.522C776.692 252.522 813.127 216.088 813.127 171.143C813.127 126.198 776.692 89.7637 731.748 89.7637C686.803 89.7637 650.368 126.198 650.368 171.143C650.368 216.088 686.803 252.522 731.748 252.522Z" fill="#454545"/>
<path d="M791.859 238.744L791.526 238.371L791.526 238.371L791.859 238.744ZM795.251 234.857C794.043 236.063 792.801 237.235 791.526 238.371L792.192 239.117C793.48 237.968 794.736 236.784 795.957 235.565L795.251 234.857ZM791.526 238.371C790.216 239.539 788.872 240.669 787.495 241.761L788.116 242.544C789.508 241.441 790.867 240.298 792.192 239.117L791.526 238.371ZM787.805 242.153L788.511 241.445L787.881 240.816L787.184 241.369L787.805 242.153ZM869.768 323.911L870.474 323.203L870.474 323.203L869.768 323.911ZM877.007 324.124L877.67 324.873L877.67 324.873L877.007 324.124ZM877.229 316.421L876.524 317.13L876.524 317.13L877.229 316.421ZM795.604 235.211L794.897 234.503L794.187 235.212L794.899 235.92L795.604 235.211ZM731.477 260.74C681.898 260.74 641.707 220.549 641.707 170.971H639.707C639.707 221.654 680.794 262.74 731.477 262.74V260.74ZM787.184 241.369C771.877 253.498 752.524 260.74 731.477 260.74V262.74C752.991 262.74 772.779 255.336 788.426 242.936L787.184 241.369ZM870.474 323.203L788.511 241.445L787.099 242.861L869.062 324.619L870.474 323.203ZM876.343 323.376C874.648 324.878 872.078 324.802 870.474 323.203L869.062 324.619C871.413 326.964 875.184 327.076 877.67 324.873L876.343 323.376ZM876.524 317.13C878.277 318.874 878.194 321.736 876.343 323.376L877.67 324.873C880.384 322.467 880.505 318.27 877.934 315.712L876.524 317.13ZM794.899 235.92L876.524 317.13L877.934 315.712L796.309 234.502L794.899 235.92ZM821.246 170.971C821.246 195.788 811.176 218.252 794.897 234.503L796.31 235.918C812.95 219.308 823.246 196.341 823.246 170.971H821.246ZM731.477 81.2012C781.055 81.2012 821.246 121.392 821.246 170.971H823.246C823.246 120.288 782.159 79.2012 731.477 79.2012V81.2012ZM641.707 170.971C641.707 121.392 681.898 81.2012 731.477 81.2012V79.2012C680.794 79.2012 639.707 120.288 639.707 170.971H641.707ZM812.127 171.143C812.127 215.535 776.14 251.522 731.748 251.522V253.522C777.244 253.522 814.127 216.64 814.127 171.143H812.127ZM731.748 90.7637C776.14 90.7637 812.127 126.751 812.127 171.143H814.127C814.127 125.646 777.244 88.7637 731.748 88.7637V90.7637ZM651.368 171.143C651.368 126.751 687.355 90.7637 731.748 90.7637V88.7637C686.251 88.7637 649.368 125.646 649.368 171.143H651.368ZM731.748 251.522C687.355 251.522 651.368 215.535 651.368 171.143H649.368C649.368 216.64 686.251 253.522 731.748 253.522V251.522Z" fill="black" mask="url(#path-108-inside-1_134_3645)"/>
</g>
<defs>
<clipPath id="clip0_134_3645">
<rect width="1332" height="539" fill="white"/>
</clipPath>
</defs>
</svg>
