<svg width="188" height="324" viewBox="0 0 188 324" fill="none" xmlns="http://www.w3.org/2000/svg">
<path d="M96.9089 95.5556C113.519 85.9657 140.449 85.9658 157.059 95.5556V95.5556C173.669 105.145 173.669 120.694 157.059 130.283L90.2255 168.87C73.6154 178.46 46.6852 178.46 30.0751 168.87V168.87C13.465 159.28 13.465 143.732 30.0751 134.142L96.9089 95.5556Z" fill="#707070" stroke="black" stroke-linejoin="bevel"/>
<rect width="77.1731" height="146.629" transform="matrix(0.866025 -0.5 0 1 90.2251 168.87)" fill="#595959" stroke="black" stroke-linejoin="bevel"/>
<path d="M17.6169 151.506C17.6169 158.287 22.3776 164.426 30.0745 168.87V315.499C22.3776 311.055 17.6169 304.916 17.6169 298.135V151.506Z" fill="#595959" stroke="black" stroke-linejoin="bevel"/>
<path d="M30.075 168.87C46.685 178.46 73.6153 178.46 90.2254 168.87V315.499C73.6153 325.089 46.685 325.089 30.075 315.499V168.87Z" fill="#595959" stroke="black" stroke-linejoin="bevel"/>
<path d="M169.517 112.92C169.517 119.701 164.756 125.84 157.059 130.284V276.913C164.756 272.469 169.517 266.33 169.517 259.549V112.92Z" fill="#707070" stroke="black" stroke-linejoin="bevel"/>
<path d="M154.165 49.1009V101.583C154.165 101.583 154.165 114.629 139.913 114.629C117.961 114.629 117.961 101.583 117.961 101.583V48.0671C117.961 43.4162 117.288 39.3355 116.048 35.8866C112.441 36.5371 108.57 37.9944 104.543 40.3198C85.008 51.598 69.1721 79.0266 69.1721 101.583L69.1722 151.025C69.1722 151.025 69.1721 163.699 54.9204 163.699C32.9685 163.699 32.9685 151.025 32.9685 151.025V93.7261C32.9685 62.0806 55.1853 23.6002 82.591 7.77743C96.842 -0.450364 109.69 -0.931617 118.74 4.95192L140.692 17.6259C149.047 23.0568 154.165 33.9111 154.165 49.1009Z" fill="white"/>
<path d="M139.913 60.7411C139.913 60.7411 139.913 93.5843 139.913 114.629M139.913 60.7411C139.913 49.0117 135.631 40.9094 128.774 37.4194C125.163 35.5817 120.838 35.0227 116.048 35.8866M139.913 60.7411C139.913 42.8354 129.934 33.3821 116.048 35.8866M139.913 114.629C117.961 114.629 117.961 101.583 117.961 101.583V48.0671C117.961 43.4162 117.288 39.3355 116.048 35.8866M139.913 114.629C154.165 114.629 154.165 101.583 154.165 101.583V49.1009C154.165 33.9111 149.047 23.0568 140.692 17.6259L118.74 4.95192C109.69 -0.931617 96.842 -0.450365 82.591 7.77743C55.1853 23.6002 32.9685 62.0806 32.9685 93.7261V151.025C32.9685 151.025 32.9685 163.699 54.9204 163.699C69.1721 163.699 69.1722 151.025 69.1722 151.025L69.1721 101.583C69.1721 79.0266 85.008 51.598 104.543 40.3198C108.57 37.9944 112.441 36.5371 116.048 35.8866" stroke="black"/>
<path d="M96.9092 95.5556C113.519 85.9657 140.45 85.9658 157.06 95.5556V95.5556C173.67 105.145 173.67 120.694 157.06 130.283L90.2258 168.87C73.6157 178.46 46.6854 178.46 30.0753 168.87V168.87C13.4652 159.28 13.4652 143.732 30.0753 134.142L96.9092 95.5556Z" fill="#707070" stroke="black" stroke-linejoin="bevel"/>
<rect width="77.1731" height="146.629" transform="matrix(0.866025 -0.5 0 1 90.2253 168.87)" fill="#595959" stroke="black" stroke-linejoin="bevel"/>
<path d="M17.6172 151.506C17.6172 158.287 22.3778 164.426 30.0748 168.87V315.499C22.3778 311.055 17.6172 304.916 17.6172 298.135V151.506Z" fill="#595959" stroke="black" stroke-linejoin="bevel"/>
<path d="M30.0752 168.87C46.6853 178.46 73.6156 178.46 90.2257 168.87V315.499C73.6156 325.089 46.6853 325.089 30.0752 315.499V168.87Z" fill="#595959" stroke="black" stroke-linejoin="bevel"/>
<path d="M169.517 112.92C169.517 119.701 164.756 125.84 157.059 130.284V276.913C164.756 272.469 169.517 266.33 169.517 259.549V112.92Z" fill="#707070" stroke="black" stroke-linejoin="bevel"/>
<path d="M154.165 49.1009V101.583C154.165 101.583 154.165 114.629 139.913 114.629C117.961 114.629 117.961 101.583 117.961 101.583V48.0671C117.961 43.4162 117.288 39.3355 116.048 35.8866C112.441 36.5371 108.57 37.9944 104.543 40.3198C85.008 51.598 69.1721 79.0266 69.1721 101.583L69.1722 151.025C69.1722 151.025 69.1721 163.699 54.9204 163.699C32.9685 163.699 32.9685 151.025 32.9685 151.025V93.7261C32.9685 62.0806 55.1853 23.6002 82.591 7.77743C96.842 -0.450364 109.69 -0.931617 118.74 4.95192L140.692 17.6259C149.047 23.0568 154.165 33.9111 154.165 49.1009Z" fill="white"/>
<path d="M139.913 60.7411C139.913 60.7411 139.913 93.5843 139.913 114.629M139.913 60.7411C139.913 49.0117 135.631 40.9094 128.774 37.4194C125.163 35.5817 120.838 35.0227 116.048 35.8866M139.913 60.7411C139.913 42.8354 129.934 33.3821 116.048 35.8866M139.913 114.629C117.961 114.629 117.961 101.583 117.961 101.583V48.0671C117.961 43.4162 117.288 39.3355 116.048 35.8866M139.913 114.629C154.165 114.629 154.165 101.583 154.165 101.583V49.1009C154.165 33.9111 149.047 23.0568 140.692 17.6259L118.74 4.95192C109.69 -0.931617 96.842 -0.450365 82.591 7.77743C55.1853 23.6002 32.9685 62.0806 32.9685 93.7261V151.025C32.9685 151.025 32.9685 163.699 54.9204 163.699C69.1721 163.699 69.1722 151.025 69.1722 151.025L69.1721 101.583C69.1721 79.0266 85.008 51.598 104.543 40.3198C108.57 37.9944 112.441 36.5371 116.048 35.8866" stroke="black"/>
</svg>
